%TF.GenerationSoftware,KiCad,Pcbnew,10.0.1*%
%TF.CreationDate,2026-07-31T17:18:54-05:00*%
%TF.ProjectId,ASI6200_cable,41534936-3230-4305-9f63-61626c652e6b,rev?*%
%TF.SameCoordinates,Original*%
%TF.FileFunction,Legend,Bot*%
%TF.FilePolarity,Positive*%
%FSLAX46Y46*%
G04 Gerber Fmt 4.6, Leading zero omitted, Abs format (unit mm)*
G04 Created by KiCad (PCBNEW 10.0.1) date 2026-07-31 17:18:54*
%MOMM*%
%LPD*%
G01*
G04 APERTURE LIST*
G04 Aperture macros list*
%AMRoundRect*
0 Rectangle with rounded corners*
0 $1 Rounding radius*
0 $2 $3 $4 $5 $6 $7 $8 $9 X,Y pos of 4 corners*
0 Add a 4 corners polygon primitive as box body*
4,1,4,$2,$3,$4,$5,$6,$7,$8,$9,$2,$3,0*
0 Add four circle primitives for the rounded corners*
1,1,$1+$1,$2,$3*
1,1,$1+$1,$4,$5*
1,1,$1+$1,$6,$7*
1,1,$1+$1,$8,$9*
0 Add four rect primitives between the rounded corners*
20,1,$1+$1,$2,$3,$4,$5,0*
20,1,$1+$1,$4,$5,$6,$7,0*
20,1,$1+$1,$6,$7,$8,$9,0*
20,1,$1+$1,$8,$9,$2,$3,0*%
G04 Aperture macros list end*
%ADD10C,0.100000*%
%ADD11C,0.150000*%
%ADD12C,0.200000*%
%ADD13RoundRect,0.050000X-1.750000X0.150000X-1.750000X-0.150000X1.750000X-0.150000X1.750000X0.150000X0*%
G04 APERTURE END LIST*
D10*
X187959284Y-95980000D02*
G75*
G02*
X187680716Y-95980000I-139284J0D01*
G01*
X187680716Y-95980000D02*
G75*
G02*
X187959284Y-95980000I139284J0D01*
G01*
D11*
X186974819Y-72366666D02*
X187689104Y-72366666D01*
X187689104Y-72366666D02*
X187831961Y-72319047D01*
X187831961Y-72319047D02*
X187927200Y-72223809D01*
X187927200Y-72223809D02*
X187974819Y-72080952D01*
X187974819Y-72080952D02*
X187974819Y-71985714D01*
X187070057Y-72795238D02*
X187022438Y-72842857D01*
X187022438Y-72842857D02*
X186974819Y-72938095D01*
X186974819Y-72938095D02*
X186974819Y-73176190D01*
X186974819Y-73176190D02*
X187022438Y-73271428D01*
X187022438Y-73271428D02*
X187070057Y-73319047D01*
X187070057Y-73319047D02*
X187165295Y-73366666D01*
X187165295Y-73366666D02*
X187260533Y-73366666D01*
X187260533Y-73366666D02*
X187403390Y-73319047D01*
X187403390Y-73319047D02*
X187974819Y-72747619D01*
X187974819Y-72747619D02*
X187974819Y-73366666D01*
%TO.C,J2*%
D12*
X194072500Y-96000000D02*
G75*
G02*
X193872500Y-96000000I-100000J0D01*
G01*
X193872500Y-96000000D02*
G75*
G02*
X194072500Y-96000000I100000J0D01*
G01*
%TD*%
%LPC*%
D13*
%TO.C,J2*%
X191272500Y-96000000D03*
X191272500Y-95500000D03*
X191272500Y-95000000D03*
X191272500Y-94500000D03*
X191272500Y-94000000D03*
X191272500Y-93500000D03*
X191272500Y-93000000D03*
X191272500Y-92500000D03*
X191272500Y-92000000D03*
X191272500Y-91500000D03*
X191272500Y-91000000D03*
X191272500Y-90500000D03*
X191272500Y-90000000D03*
X191272500Y-89500000D03*
X191272500Y-89000000D03*
X191272500Y-88500000D03*
X191272500Y-88000000D03*
X191272500Y-87500000D03*
X191272500Y-87000000D03*
X191272500Y-86500000D03*
X191272500Y-86000000D03*
X191272500Y-85500000D03*
X191272500Y-85000000D03*
X191272500Y-84500000D03*
X191272500Y-84000000D03*
X191272500Y-83500000D03*
X191272500Y-83000000D03*
X191272500Y-82500000D03*
X191272500Y-82000000D03*
X191272500Y-81500000D03*
X191272500Y-81000000D03*
X191272500Y-80500000D03*
X191272500Y-80000000D03*
X191272500Y-79500000D03*
X191272500Y-79000000D03*
X191272500Y-78500000D03*
X191272500Y-78000000D03*
X191272500Y-77500000D03*
X191272500Y-77000000D03*
X191272500Y-76500000D03*
X191272500Y-76000000D03*
X191272500Y-75500000D03*
X191272500Y-75000000D03*
X191272500Y-74500000D03*
X191272500Y-74000000D03*
X191272500Y-73500000D03*
X191272500Y-73000000D03*
X191272500Y-72500000D03*
X191272500Y-72000000D03*
X191272500Y-71500000D03*
%TD*%
%LPD*%
M02*
