%TF.GenerationSoftware,KiCad,Pcbnew,10.0.1*%
%TF.CreationDate,2026-07-31T17:18:54-05:00*%
%TF.ProjectId,ASI6200_cable,41534936-3230-4305-9f63-61626c652e6b,rev?*%
%TF.SameCoordinates,Original*%
%TF.FileFunction,Legend,Top*%
%TF.FilePolarity,Positive*%
%FSLAX46Y46*%
G04 Gerber Fmt 4.6, Leading zero omitted, Abs format (unit mm)*
G04 Created by KiCad (PCBNEW 10.0.1) date 2026-07-31 17:18:54*
%MOMM*%
%LPD*%
G01*
G04 APERTURE LIST*
G04 Aperture macros list*
%AMRoundRect*
0 Rectangle with rounded corners*
0 $1 Rounding radius*
0 $2 $3 $4 $5 $6 $7 $8 $9 X,Y pos of 4 corners*
0 Add a 4 corners polygon primitive as box body*
4,1,4,$2,$3,$4,$5,$6,$7,$8,$9,$2,$3,0*
0 Add four circle primitives for the rounded corners*
1,1,$1+$1,$2,$3*
1,1,$1+$1,$4,$5*
1,1,$1+$1,$6,$7*
1,1,$1+$1,$8,$9*
0 Add four rect primitives between the rounded corners*
20,1,$1+$1,$2,$3,$4,$5,0*
20,1,$1+$1,$4,$5,$6,$7,0*
20,1,$1+$1,$6,$7,$8,$9,0*
20,1,$1+$1,$8,$9,$2,$3,0*%
G04 Aperture macros list end*
%ADD10C,0.100000*%
%ADD11C,0.150000*%
%ADD12C,0.200000*%
%ADD13RoundRect,0.050000X1.750000X-0.150000X1.750000X0.150000X-1.750000X0.150000X-1.750000X-0.150000X0*%
G04 APERTURE END LIST*
D10*
X135407342Y-90988095D02*
X135407342Y-90511905D01*
X135693057Y-91083333D02*
X134693057Y-90750000D01*
X134693057Y-90750000D02*
X135693057Y-90416667D01*
X135645438Y-90130952D02*
X135693057Y-89988095D01*
X135693057Y-89988095D02*
X135693057Y-89750000D01*
X135693057Y-89750000D02*
X135645438Y-89654762D01*
X135645438Y-89654762D02*
X135597818Y-89607143D01*
X135597818Y-89607143D02*
X135502580Y-89559524D01*
X135502580Y-89559524D02*
X135407342Y-89559524D01*
X135407342Y-89559524D02*
X135312104Y-89607143D01*
X135312104Y-89607143D02*
X135264485Y-89654762D01*
X135264485Y-89654762D02*
X135216866Y-89750000D01*
X135216866Y-89750000D02*
X135169247Y-89940476D01*
X135169247Y-89940476D02*
X135121628Y-90035714D01*
X135121628Y-90035714D02*
X135074009Y-90083333D01*
X135074009Y-90083333D02*
X134978771Y-90130952D01*
X134978771Y-90130952D02*
X134883533Y-90130952D01*
X134883533Y-90130952D02*
X134788295Y-90083333D01*
X134788295Y-90083333D02*
X134740676Y-90035714D01*
X134740676Y-90035714D02*
X134693057Y-89940476D01*
X134693057Y-89940476D02*
X134693057Y-89702381D01*
X134693057Y-89702381D02*
X134740676Y-89559524D01*
X135693057Y-89130952D02*
X134693057Y-89130952D01*
X134693057Y-88226191D02*
X134693057Y-88416667D01*
X134693057Y-88416667D02*
X134740676Y-88511905D01*
X134740676Y-88511905D02*
X134788295Y-88559524D01*
X134788295Y-88559524D02*
X134931152Y-88654762D01*
X134931152Y-88654762D02*
X135121628Y-88702381D01*
X135121628Y-88702381D02*
X135502580Y-88702381D01*
X135502580Y-88702381D02*
X135597818Y-88654762D01*
X135597818Y-88654762D02*
X135645438Y-88607143D01*
X135645438Y-88607143D02*
X135693057Y-88511905D01*
X135693057Y-88511905D02*
X135693057Y-88321429D01*
X135693057Y-88321429D02*
X135645438Y-88226191D01*
X135645438Y-88226191D02*
X135597818Y-88178572D01*
X135597818Y-88178572D02*
X135502580Y-88130953D01*
X135502580Y-88130953D02*
X135264485Y-88130953D01*
X135264485Y-88130953D02*
X135169247Y-88178572D01*
X135169247Y-88178572D02*
X135121628Y-88226191D01*
X135121628Y-88226191D02*
X135074009Y-88321429D01*
X135074009Y-88321429D02*
X135074009Y-88511905D01*
X135074009Y-88511905D02*
X135121628Y-88607143D01*
X135121628Y-88607143D02*
X135169247Y-88654762D01*
X135169247Y-88654762D02*
X135264485Y-88702381D01*
X134788295Y-87750000D02*
X134740676Y-87702381D01*
X134740676Y-87702381D02*
X134693057Y-87607143D01*
X134693057Y-87607143D02*
X134693057Y-87369048D01*
X134693057Y-87369048D02*
X134740676Y-87273810D01*
X134740676Y-87273810D02*
X134788295Y-87226191D01*
X134788295Y-87226191D02*
X134883533Y-87178572D01*
X134883533Y-87178572D02*
X134978771Y-87178572D01*
X134978771Y-87178572D02*
X135121628Y-87226191D01*
X135121628Y-87226191D02*
X135693057Y-87797619D01*
X135693057Y-87797619D02*
X135693057Y-87178572D01*
X134693057Y-86559524D02*
X134693057Y-86464286D01*
X134693057Y-86464286D02*
X134740676Y-86369048D01*
X134740676Y-86369048D02*
X134788295Y-86321429D01*
X134788295Y-86321429D02*
X134883533Y-86273810D01*
X134883533Y-86273810D02*
X135074009Y-86226191D01*
X135074009Y-86226191D02*
X135312104Y-86226191D01*
X135312104Y-86226191D02*
X135502580Y-86273810D01*
X135502580Y-86273810D02*
X135597818Y-86321429D01*
X135597818Y-86321429D02*
X135645438Y-86369048D01*
X135645438Y-86369048D02*
X135693057Y-86464286D01*
X135693057Y-86464286D02*
X135693057Y-86559524D01*
X135693057Y-86559524D02*
X135645438Y-86654762D01*
X135645438Y-86654762D02*
X135597818Y-86702381D01*
X135597818Y-86702381D02*
X135502580Y-86750000D01*
X135502580Y-86750000D02*
X135312104Y-86797619D01*
X135312104Y-86797619D02*
X135074009Y-86797619D01*
X135074009Y-86797619D02*
X134883533Y-86750000D01*
X134883533Y-86750000D02*
X134788295Y-86702381D01*
X134788295Y-86702381D02*
X134740676Y-86654762D01*
X134740676Y-86654762D02*
X134693057Y-86559524D01*
X134693057Y-85607143D02*
X134693057Y-85511905D01*
X134693057Y-85511905D02*
X134740676Y-85416667D01*
X134740676Y-85416667D02*
X134788295Y-85369048D01*
X134788295Y-85369048D02*
X134883533Y-85321429D01*
X134883533Y-85321429D02*
X135074009Y-85273810D01*
X135074009Y-85273810D02*
X135312104Y-85273810D01*
X135312104Y-85273810D02*
X135502580Y-85321429D01*
X135502580Y-85321429D02*
X135597818Y-85369048D01*
X135597818Y-85369048D02*
X135645438Y-85416667D01*
X135645438Y-85416667D02*
X135693057Y-85511905D01*
X135693057Y-85511905D02*
X135693057Y-85607143D01*
X135693057Y-85607143D02*
X135645438Y-85702381D01*
X135645438Y-85702381D02*
X135597818Y-85750000D01*
X135597818Y-85750000D02*
X135502580Y-85797619D01*
X135502580Y-85797619D02*
X135312104Y-85845238D01*
X135312104Y-85845238D02*
X135074009Y-85845238D01*
X135074009Y-85845238D02*
X134883533Y-85797619D01*
X134883533Y-85797619D02*
X134788295Y-85750000D01*
X134788295Y-85750000D02*
X134740676Y-85702381D01*
X134740676Y-85702381D02*
X134693057Y-85607143D01*
X135169247Y-83750000D02*
X135169247Y-84083333D01*
X135693057Y-84083333D02*
X134693057Y-84083333D01*
X134693057Y-84083333D02*
X134693057Y-83607143D01*
X135693057Y-83083333D02*
X135645438Y-83178571D01*
X135645438Y-83178571D02*
X135550199Y-83226190D01*
X135550199Y-83226190D02*
X134693057Y-83226190D01*
X135645438Y-82321428D02*
X135693057Y-82416666D01*
X135693057Y-82416666D02*
X135693057Y-82607142D01*
X135693057Y-82607142D02*
X135645438Y-82702380D01*
X135645438Y-82702380D02*
X135550199Y-82749999D01*
X135550199Y-82749999D02*
X135169247Y-82749999D01*
X135169247Y-82749999D02*
X135074009Y-82702380D01*
X135074009Y-82702380D02*
X135026390Y-82607142D01*
X135026390Y-82607142D02*
X135026390Y-82416666D01*
X135026390Y-82416666D02*
X135074009Y-82321428D01*
X135074009Y-82321428D02*
X135169247Y-82273809D01*
X135169247Y-82273809D02*
X135264485Y-82273809D01*
X135264485Y-82273809D02*
X135359723Y-82749999D01*
X135693057Y-81940475D02*
X135026390Y-81416666D01*
X135026390Y-81940475D02*
X135693057Y-81416666D01*
X135597818Y-79702380D02*
X135645438Y-79749999D01*
X135645438Y-79749999D02*
X135693057Y-79892856D01*
X135693057Y-79892856D02*
X135693057Y-79988094D01*
X135693057Y-79988094D02*
X135645438Y-80130951D01*
X135645438Y-80130951D02*
X135550199Y-80226189D01*
X135550199Y-80226189D02*
X135454961Y-80273808D01*
X135454961Y-80273808D02*
X135264485Y-80321427D01*
X135264485Y-80321427D02*
X135121628Y-80321427D01*
X135121628Y-80321427D02*
X134931152Y-80273808D01*
X134931152Y-80273808D02*
X134835914Y-80226189D01*
X134835914Y-80226189D02*
X134740676Y-80130951D01*
X134740676Y-80130951D02*
X134693057Y-79988094D01*
X134693057Y-79988094D02*
X134693057Y-79892856D01*
X134693057Y-79892856D02*
X134740676Y-79749999D01*
X134740676Y-79749999D02*
X134788295Y-79702380D01*
X135693057Y-78845237D02*
X135169247Y-78845237D01*
X135169247Y-78845237D02*
X135074009Y-78892856D01*
X135074009Y-78892856D02*
X135026390Y-78988094D01*
X135026390Y-78988094D02*
X135026390Y-79178570D01*
X135026390Y-79178570D02*
X135074009Y-79273808D01*
X135645438Y-78845237D02*
X135693057Y-78940475D01*
X135693057Y-78940475D02*
X135693057Y-79178570D01*
X135693057Y-79178570D02*
X135645438Y-79273808D01*
X135645438Y-79273808D02*
X135550199Y-79321427D01*
X135550199Y-79321427D02*
X135454961Y-79321427D01*
X135454961Y-79321427D02*
X135359723Y-79273808D01*
X135359723Y-79273808D02*
X135312104Y-79178570D01*
X135312104Y-79178570D02*
X135312104Y-78940475D01*
X135312104Y-78940475D02*
X135264485Y-78845237D01*
X135693057Y-78369046D02*
X134693057Y-78369046D01*
X135074009Y-78369046D02*
X135026390Y-78273808D01*
X135026390Y-78273808D02*
X135026390Y-78083332D01*
X135026390Y-78083332D02*
X135074009Y-77988094D01*
X135074009Y-77988094D02*
X135121628Y-77940475D01*
X135121628Y-77940475D02*
X135216866Y-77892856D01*
X135216866Y-77892856D02*
X135502580Y-77892856D01*
X135502580Y-77892856D02*
X135597818Y-77940475D01*
X135597818Y-77940475D02*
X135645438Y-77988094D01*
X135645438Y-77988094D02*
X135693057Y-78083332D01*
X135693057Y-78083332D02*
X135693057Y-78273808D01*
X135693057Y-78273808D02*
X135645438Y-78369046D01*
X135693057Y-77321427D02*
X135645438Y-77416665D01*
X135645438Y-77416665D02*
X135550199Y-77464284D01*
X135550199Y-77464284D02*
X134693057Y-77464284D01*
X135645438Y-76559522D02*
X135693057Y-76654760D01*
X135693057Y-76654760D02*
X135693057Y-76845236D01*
X135693057Y-76845236D02*
X135645438Y-76940474D01*
X135645438Y-76940474D02*
X135550199Y-76988093D01*
X135550199Y-76988093D02*
X135169247Y-76988093D01*
X135169247Y-76988093D02*
X135074009Y-76940474D01*
X135074009Y-76940474D02*
X135026390Y-76845236D01*
X135026390Y-76845236D02*
X135026390Y-76654760D01*
X135026390Y-76654760D02*
X135074009Y-76559522D01*
X135074009Y-76559522D02*
X135169247Y-76511903D01*
X135169247Y-76511903D02*
X135264485Y-76511903D01*
X135264485Y-76511903D02*
X135359723Y-76988093D01*
X136779191Y-88797619D02*
X136826810Y-88654762D01*
X136826810Y-88654762D02*
X136874429Y-88607143D01*
X136874429Y-88607143D02*
X136969667Y-88559524D01*
X136969667Y-88559524D02*
X137112524Y-88559524D01*
X137112524Y-88559524D02*
X137207762Y-88607143D01*
X137207762Y-88607143D02*
X137255382Y-88654762D01*
X137255382Y-88654762D02*
X137303001Y-88750000D01*
X137303001Y-88750000D02*
X137303001Y-89130952D01*
X137303001Y-89130952D02*
X136303001Y-89130952D01*
X136303001Y-89130952D02*
X136303001Y-88797619D01*
X136303001Y-88797619D02*
X136350620Y-88702381D01*
X136350620Y-88702381D02*
X136398239Y-88654762D01*
X136398239Y-88654762D02*
X136493477Y-88607143D01*
X136493477Y-88607143D02*
X136588715Y-88607143D01*
X136588715Y-88607143D02*
X136683953Y-88654762D01*
X136683953Y-88654762D02*
X136731572Y-88702381D01*
X136731572Y-88702381D02*
X136779191Y-88797619D01*
X136779191Y-88797619D02*
X136779191Y-89130952D01*
X137303001Y-87988095D02*
X137255382Y-88083333D01*
X137255382Y-88083333D02*
X137160143Y-88130952D01*
X137160143Y-88130952D02*
X136303001Y-88130952D01*
X137303001Y-87178571D02*
X136779191Y-87178571D01*
X136779191Y-87178571D02*
X136683953Y-87226190D01*
X136683953Y-87226190D02*
X136636334Y-87321428D01*
X136636334Y-87321428D02*
X136636334Y-87511904D01*
X136636334Y-87511904D02*
X136683953Y-87607142D01*
X137255382Y-87178571D02*
X137303001Y-87273809D01*
X137303001Y-87273809D02*
X137303001Y-87511904D01*
X137303001Y-87511904D02*
X137255382Y-87607142D01*
X137255382Y-87607142D02*
X137160143Y-87654761D01*
X137160143Y-87654761D02*
X137064905Y-87654761D01*
X137064905Y-87654761D02*
X136969667Y-87607142D01*
X136969667Y-87607142D02*
X136922048Y-87511904D01*
X136922048Y-87511904D02*
X136922048Y-87273809D01*
X136922048Y-87273809D02*
X136874429Y-87178571D01*
X137303001Y-86702380D02*
X136636334Y-86702380D01*
X136303001Y-86702380D02*
X136350620Y-86749999D01*
X136350620Y-86749999D02*
X136398239Y-86702380D01*
X136398239Y-86702380D02*
X136350620Y-86654761D01*
X136350620Y-86654761D02*
X136303001Y-86702380D01*
X136303001Y-86702380D02*
X136398239Y-86702380D01*
X137303001Y-86226190D02*
X136636334Y-86226190D01*
X136826810Y-86226190D02*
X136731572Y-86178571D01*
X136731572Y-86178571D02*
X136683953Y-86130952D01*
X136683953Y-86130952D02*
X136636334Y-86035714D01*
X136636334Y-86035714D02*
X136636334Y-85940476D01*
X136303001Y-84559523D02*
X137017286Y-84559523D01*
X137017286Y-84559523D02*
X137160143Y-84607142D01*
X137160143Y-84607142D02*
X137255382Y-84702380D01*
X137255382Y-84702380D02*
X137303001Y-84845237D01*
X137303001Y-84845237D02*
X137303001Y-84940475D01*
X137303001Y-83654761D02*
X136779191Y-83654761D01*
X136779191Y-83654761D02*
X136683953Y-83702380D01*
X136683953Y-83702380D02*
X136636334Y-83797618D01*
X136636334Y-83797618D02*
X136636334Y-83988094D01*
X136636334Y-83988094D02*
X136683953Y-84083332D01*
X137255382Y-83654761D02*
X137303001Y-83749999D01*
X137303001Y-83749999D02*
X137303001Y-83988094D01*
X137303001Y-83988094D02*
X137255382Y-84083332D01*
X137255382Y-84083332D02*
X137160143Y-84130951D01*
X137160143Y-84130951D02*
X137064905Y-84130951D01*
X137064905Y-84130951D02*
X136969667Y-84083332D01*
X136969667Y-84083332D02*
X136922048Y-83988094D01*
X136922048Y-83988094D02*
X136922048Y-83749999D01*
X136922048Y-83749999D02*
X136874429Y-83654761D01*
X137303001Y-83178570D02*
X136636334Y-83178570D01*
X136731572Y-83178570D02*
X136683953Y-83130951D01*
X136683953Y-83130951D02*
X136636334Y-83035713D01*
X136636334Y-83035713D02*
X136636334Y-82892856D01*
X136636334Y-82892856D02*
X136683953Y-82797618D01*
X136683953Y-82797618D02*
X136779191Y-82749999D01*
X136779191Y-82749999D02*
X137303001Y-82749999D01*
X136779191Y-82749999D02*
X136683953Y-82702380D01*
X136683953Y-82702380D02*
X136636334Y-82607142D01*
X136636334Y-82607142D02*
X136636334Y-82464285D01*
X136636334Y-82464285D02*
X136683953Y-82369046D01*
X136683953Y-82369046D02*
X136779191Y-82321427D01*
X136779191Y-82321427D02*
X137303001Y-82321427D01*
X137303001Y-81845237D02*
X136636334Y-81845237D01*
X136303001Y-81845237D02*
X136350620Y-81892856D01*
X136350620Y-81892856D02*
X136398239Y-81845237D01*
X136398239Y-81845237D02*
X136350620Y-81797618D01*
X136350620Y-81797618D02*
X136303001Y-81845237D01*
X136303001Y-81845237D02*
X136398239Y-81845237D01*
X137255382Y-80988095D02*
X137303001Y-81083333D01*
X137303001Y-81083333D02*
X137303001Y-81273809D01*
X137303001Y-81273809D02*
X137255382Y-81369047D01*
X137255382Y-81369047D02*
X137160143Y-81416666D01*
X137160143Y-81416666D02*
X136779191Y-81416666D01*
X136779191Y-81416666D02*
X136683953Y-81369047D01*
X136683953Y-81369047D02*
X136636334Y-81273809D01*
X136636334Y-81273809D02*
X136636334Y-81083333D01*
X136636334Y-81083333D02*
X136683953Y-80988095D01*
X136683953Y-80988095D02*
X136779191Y-80940476D01*
X136779191Y-80940476D02*
X136874429Y-80940476D01*
X136874429Y-80940476D02*
X136969667Y-81416666D01*
X137255382Y-80559523D02*
X137303001Y-80464285D01*
X137303001Y-80464285D02*
X137303001Y-80273809D01*
X137303001Y-80273809D02*
X137255382Y-80178571D01*
X137255382Y-80178571D02*
X137160143Y-80130952D01*
X137160143Y-80130952D02*
X137112524Y-80130952D01*
X137112524Y-80130952D02*
X137017286Y-80178571D01*
X137017286Y-80178571D02*
X136969667Y-80273809D01*
X136969667Y-80273809D02*
X136969667Y-80416666D01*
X136969667Y-80416666D02*
X136922048Y-80511904D01*
X136922048Y-80511904D02*
X136826810Y-80559523D01*
X136826810Y-80559523D02*
X136779191Y-80559523D01*
X136779191Y-80559523D02*
X136683953Y-80511904D01*
X136683953Y-80511904D02*
X136636334Y-80416666D01*
X136636334Y-80416666D02*
X136636334Y-80273809D01*
X136636334Y-80273809D02*
X136683953Y-80178571D01*
X137303001Y-79559523D02*
X137255382Y-79654761D01*
X137255382Y-79654761D02*
X137207762Y-79702380D01*
X137207762Y-79702380D02*
X137112524Y-79749999D01*
X137112524Y-79749999D02*
X136826810Y-79749999D01*
X136826810Y-79749999D02*
X136731572Y-79702380D01*
X136731572Y-79702380D02*
X136683953Y-79654761D01*
X136683953Y-79654761D02*
X136636334Y-79559523D01*
X136636334Y-79559523D02*
X136636334Y-79416666D01*
X136636334Y-79416666D02*
X136683953Y-79321428D01*
X136683953Y-79321428D02*
X136731572Y-79273809D01*
X136731572Y-79273809D02*
X136826810Y-79226190D01*
X136826810Y-79226190D02*
X137112524Y-79226190D01*
X137112524Y-79226190D02*
X137207762Y-79273809D01*
X137207762Y-79273809D02*
X137255382Y-79321428D01*
X137255382Y-79321428D02*
X137303001Y-79416666D01*
X137303001Y-79416666D02*
X137303001Y-79559523D01*
X136636334Y-78797618D02*
X137303001Y-78797618D01*
X136731572Y-78797618D02*
X136683953Y-78749999D01*
X136683953Y-78749999D02*
X136636334Y-78654761D01*
X136636334Y-78654761D02*
X136636334Y-78511904D01*
X136636334Y-78511904D02*
X136683953Y-78416666D01*
X136683953Y-78416666D02*
X136779191Y-78369047D01*
X136779191Y-78369047D02*
X137303001Y-78369047D01*
X137912945Y-90511904D02*
X138722468Y-90511904D01*
X138722468Y-90511904D02*
X138817706Y-90464285D01*
X138817706Y-90464285D02*
X138865326Y-90416666D01*
X138865326Y-90416666D02*
X138912945Y-90321428D01*
X138912945Y-90321428D02*
X138912945Y-90130952D01*
X138912945Y-90130952D02*
X138865326Y-90035714D01*
X138865326Y-90035714D02*
X138817706Y-89988095D01*
X138817706Y-89988095D02*
X138722468Y-89940476D01*
X138722468Y-89940476D02*
X137912945Y-89940476D01*
X137912945Y-89559523D02*
X138912945Y-89321428D01*
X138912945Y-89321428D02*
X138198659Y-89130952D01*
X138198659Y-89130952D02*
X138912945Y-88940476D01*
X138912945Y-88940476D02*
X137912945Y-88702381D01*
X138912945Y-88321428D02*
X138246278Y-88321428D01*
X137912945Y-88321428D02*
X137960564Y-88369047D01*
X137960564Y-88369047D02*
X138008183Y-88321428D01*
X138008183Y-88321428D02*
X137960564Y-88273809D01*
X137960564Y-88273809D02*
X137912945Y-88321428D01*
X137912945Y-88321428D02*
X138008183Y-88321428D01*
X138246278Y-87845238D02*
X138912945Y-87845238D01*
X138341516Y-87845238D02*
X138293897Y-87797619D01*
X138293897Y-87797619D02*
X138246278Y-87702381D01*
X138246278Y-87702381D02*
X138246278Y-87559524D01*
X138246278Y-87559524D02*
X138293897Y-87464286D01*
X138293897Y-87464286D02*
X138389135Y-87416667D01*
X138389135Y-87416667D02*
X138912945Y-87416667D01*
X138246278Y-86940476D02*
X138912945Y-86940476D01*
X138341516Y-86940476D02*
X138293897Y-86892857D01*
X138293897Y-86892857D02*
X138246278Y-86797619D01*
X138246278Y-86797619D02*
X138246278Y-86654762D01*
X138246278Y-86654762D02*
X138293897Y-86559524D01*
X138293897Y-86559524D02*
X138389135Y-86511905D01*
X138389135Y-86511905D02*
X138912945Y-86511905D01*
X138912945Y-86035714D02*
X138246278Y-86035714D01*
X137912945Y-86035714D02*
X137960564Y-86083333D01*
X137960564Y-86083333D02*
X138008183Y-86035714D01*
X138008183Y-86035714D02*
X137960564Y-85988095D01*
X137960564Y-85988095D02*
X137912945Y-86035714D01*
X137912945Y-86035714D02*
X138008183Y-86035714D01*
X138246278Y-85559524D02*
X139246278Y-85559524D01*
X138293897Y-85559524D02*
X138246278Y-85464286D01*
X138246278Y-85464286D02*
X138246278Y-85273810D01*
X138246278Y-85273810D02*
X138293897Y-85178572D01*
X138293897Y-85178572D02*
X138341516Y-85130953D01*
X138341516Y-85130953D02*
X138436754Y-85083334D01*
X138436754Y-85083334D02*
X138722468Y-85083334D01*
X138722468Y-85083334D02*
X138817706Y-85130953D01*
X138817706Y-85130953D02*
X138865326Y-85178572D01*
X138865326Y-85178572D02*
X138912945Y-85273810D01*
X138912945Y-85273810D02*
X138912945Y-85464286D01*
X138912945Y-85464286D02*
X138865326Y-85559524D01*
X138865326Y-84273810D02*
X138912945Y-84369048D01*
X138912945Y-84369048D02*
X138912945Y-84559524D01*
X138912945Y-84559524D02*
X138865326Y-84654762D01*
X138865326Y-84654762D02*
X138770087Y-84702381D01*
X138770087Y-84702381D02*
X138389135Y-84702381D01*
X138389135Y-84702381D02*
X138293897Y-84654762D01*
X138293897Y-84654762D02*
X138246278Y-84559524D01*
X138246278Y-84559524D02*
X138246278Y-84369048D01*
X138246278Y-84369048D02*
X138293897Y-84273810D01*
X138293897Y-84273810D02*
X138389135Y-84226191D01*
X138389135Y-84226191D02*
X138484373Y-84226191D01*
X138484373Y-84226191D02*
X138579611Y-84702381D01*
X138246278Y-83369048D02*
X139055802Y-83369048D01*
X139055802Y-83369048D02*
X139151040Y-83416667D01*
X139151040Y-83416667D02*
X139198659Y-83464286D01*
X139198659Y-83464286D02*
X139246278Y-83559524D01*
X139246278Y-83559524D02*
X139246278Y-83702381D01*
X139246278Y-83702381D02*
X139198659Y-83797619D01*
X138865326Y-83369048D02*
X138912945Y-83464286D01*
X138912945Y-83464286D02*
X138912945Y-83654762D01*
X138912945Y-83654762D02*
X138865326Y-83750000D01*
X138865326Y-83750000D02*
X138817706Y-83797619D01*
X138817706Y-83797619D02*
X138722468Y-83845238D01*
X138722468Y-83845238D02*
X138436754Y-83845238D01*
X138436754Y-83845238D02*
X138341516Y-83797619D01*
X138341516Y-83797619D02*
X138293897Y-83750000D01*
X138293897Y-83750000D02*
X138246278Y-83654762D01*
X138246278Y-83654762D02*
X138246278Y-83464286D01*
X138246278Y-83464286D02*
X138293897Y-83369048D01*
X138912945Y-82130952D02*
X137912945Y-82130952D01*
X137912945Y-82130952D02*
X137912945Y-81750000D01*
X137912945Y-81750000D02*
X137960564Y-81654762D01*
X137960564Y-81654762D02*
X138008183Y-81607143D01*
X138008183Y-81607143D02*
X138103421Y-81559524D01*
X138103421Y-81559524D02*
X138246278Y-81559524D01*
X138246278Y-81559524D02*
X138341516Y-81607143D01*
X138341516Y-81607143D02*
X138389135Y-81654762D01*
X138389135Y-81654762D02*
X138436754Y-81750000D01*
X138436754Y-81750000D02*
X138436754Y-82130952D01*
X138912945Y-81130952D02*
X137912945Y-81130952D01*
X138912945Y-80702381D02*
X138389135Y-80702381D01*
X138389135Y-80702381D02*
X138293897Y-80750000D01*
X138293897Y-80750000D02*
X138246278Y-80845238D01*
X138246278Y-80845238D02*
X138246278Y-80988095D01*
X138246278Y-80988095D02*
X138293897Y-81083333D01*
X138293897Y-81083333D02*
X138341516Y-81130952D01*
X138246278Y-80321428D02*
X138912945Y-80083333D01*
X138246278Y-79845238D02*
X138912945Y-80083333D01*
X138912945Y-80083333D02*
X139151040Y-80178571D01*
X139151040Y-80178571D02*
X139198659Y-80226190D01*
X139198659Y-80226190D02*
X139246278Y-80321428D01*
X138865326Y-79511904D02*
X138912945Y-79416666D01*
X138912945Y-79416666D02*
X138912945Y-79226190D01*
X138912945Y-79226190D02*
X138865326Y-79130952D01*
X138865326Y-79130952D02*
X138770087Y-79083333D01*
X138770087Y-79083333D02*
X138722468Y-79083333D01*
X138722468Y-79083333D02*
X138627230Y-79130952D01*
X138627230Y-79130952D02*
X138579611Y-79226190D01*
X138579611Y-79226190D02*
X138579611Y-79369047D01*
X138579611Y-79369047D02*
X138531992Y-79464285D01*
X138531992Y-79464285D02*
X138436754Y-79511904D01*
X138436754Y-79511904D02*
X138389135Y-79511904D01*
X138389135Y-79511904D02*
X138293897Y-79464285D01*
X138293897Y-79464285D02*
X138246278Y-79369047D01*
X138246278Y-79369047D02*
X138246278Y-79226190D01*
X138246278Y-79226190D02*
X138293897Y-79130952D01*
X138912945Y-78654761D02*
X138246278Y-78654761D01*
X137912945Y-78654761D02*
X137960564Y-78702380D01*
X137960564Y-78702380D02*
X138008183Y-78654761D01*
X138008183Y-78654761D02*
X137960564Y-78607142D01*
X137960564Y-78607142D02*
X137912945Y-78654761D01*
X137912945Y-78654761D02*
X138008183Y-78654761D01*
X138865326Y-77750000D02*
X138912945Y-77845238D01*
X138912945Y-77845238D02*
X138912945Y-78035714D01*
X138912945Y-78035714D02*
X138865326Y-78130952D01*
X138865326Y-78130952D02*
X138817706Y-78178571D01*
X138817706Y-78178571D02*
X138722468Y-78226190D01*
X138722468Y-78226190D02*
X138436754Y-78226190D01*
X138436754Y-78226190D02*
X138341516Y-78178571D01*
X138341516Y-78178571D02*
X138293897Y-78130952D01*
X138293897Y-78130952D02*
X138246278Y-78035714D01*
X138246278Y-78035714D02*
X138246278Y-77845238D01*
X138246278Y-77845238D02*
X138293897Y-77750000D01*
X138865326Y-77369047D02*
X138912945Y-77273809D01*
X138912945Y-77273809D02*
X138912945Y-77083333D01*
X138912945Y-77083333D02*
X138865326Y-76988095D01*
X138865326Y-76988095D02*
X138770087Y-76940476D01*
X138770087Y-76940476D02*
X138722468Y-76940476D01*
X138722468Y-76940476D02*
X138627230Y-76988095D01*
X138627230Y-76988095D02*
X138579611Y-77083333D01*
X138579611Y-77083333D02*
X138579611Y-77226190D01*
X138579611Y-77226190D02*
X138531992Y-77321428D01*
X138531992Y-77321428D02*
X138436754Y-77369047D01*
X138436754Y-77369047D02*
X138389135Y-77369047D01*
X138389135Y-77369047D02*
X138293897Y-77321428D01*
X138293897Y-77321428D02*
X138246278Y-77226190D01*
X138246278Y-77226190D02*
X138246278Y-77083333D01*
X138246278Y-77083333D02*
X138293897Y-76988095D01*
X139522889Y-86988095D02*
X140237174Y-86988095D01*
X140237174Y-86988095D02*
X140380031Y-87035714D01*
X140380031Y-87035714D02*
X140475270Y-87130952D01*
X140475270Y-87130952D02*
X140522889Y-87273809D01*
X140522889Y-87273809D02*
X140522889Y-87369047D01*
X139856222Y-86083333D02*
X140522889Y-86083333D01*
X139856222Y-86511904D02*
X140380031Y-86511904D01*
X140380031Y-86511904D02*
X140475270Y-86464285D01*
X140475270Y-86464285D02*
X140522889Y-86369047D01*
X140522889Y-86369047D02*
X140522889Y-86226190D01*
X140522889Y-86226190D02*
X140475270Y-86130952D01*
X140475270Y-86130952D02*
X140427650Y-86083333D01*
X140522889Y-85464285D02*
X140475270Y-85559523D01*
X140475270Y-85559523D02*
X140380031Y-85607142D01*
X140380031Y-85607142D02*
X139522889Y-85607142D01*
X139856222Y-85178570D02*
X140522889Y-84940475D01*
X139856222Y-84702380D02*
X140522889Y-84940475D01*
X140522889Y-84940475D02*
X140760984Y-85035713D01*
X140760984Y-85035713D02*
X140808603Y-85083332D01*
X140808603Y-85083332D02*
X140856222Y-85178570D01*
X139618127Y-83607141D02*
X139570508Y-83559522D01*
X139570508Y-83559522D02*
X139522889Y-83464284D01*
X139522889Y-83464284D02*
X139522889Y-83226189D01*
X139522889Y-83226189D02*
X139570508Y-83130951D01*
X139570508Y-83130951D02*
X139618127Y-83083332D01*
X139618127Y-83083332D02*
X139713365Y-83035713D01*
X139713365Y-83035713D02*
X139808603Y-83035713D01*
X139808603Y-83035713D02*
X139951460Y-83083332D01*
X139951460Y-83083332D02*
X140522889Y-83654760D01*
X140522889Y-83654760D02*
X140522889Y-83035713D01*
X139522889Y-82416665D02*
X139522889Y-82321427D01*
X139522889Y-82321427D02*
X139570508Y-82226189D01*
X139570508Y-82226189D02*
X139618127Y-82178570D01*
X139618127Y-82178570D02*
X139713365Y-82130951D01*
X139713365Y-82130951D02*
X139903841Y-82083332D01*
X139903841Y-82083332D02*
X140141936Y-82083332D01*
X140141936Y-82083332D02*
X140332412Y-82130951D01*
X140332412Y-82130951D02*
X140427650Y-82178570D01*
X140427650Y-82178570D02*
X140475270Y-82226189D01*
X140475270Y-82226189D02*
X140522889Y-82321427D01*
X140522889Y-82321427D02*
X140522889Y-82416665D01*
X140522889Y-82416665D02*
X140475270Y-82511903D01*
X140475270Y-82511903D02*
X140427650Y-82559522D01*
X140427650Y-82559522D02*
X140332412Y-82607141D01*
X140332412Y-82607141D02*
X140141936Y-82654760D01*
X140141936Y-82654760D02*
X139903841Y-82654760D01*
X139903841Y-82654760D02*
X139713365Y-82607141D01*
X139713365Y-82607141D02*
X139618127Y-82559522D01*
X139618127Y-82559522D02*
X139570508Y-82511903D01*
X139570508Y-82511903D02*
X139522889Y-82416665D01*
X139618127Y-81702379D02*
X139570508Y-81654760D01*
X139570508Y-81654760D02*
X139522889Y-81559522D01*
X139522889Y-81559522D02*
X139522889Y-81321427D01*
X139522889Y-81321427D02*
X139570508Y-81226189D01*
X139570508Y-81226189D02*
X139618127Y-81178570D01*
X139618127Y-81178570D02*
X139713365Y-81130951D01*
X139713365Y-81130951D02*
X139808603Y-81130951D01*
X139808603Y-81130951D02*
X139951460Y-81178570D01*
X139951460Y-81178570D02*
X140522889Y-81749998D01*
X140522889Y-81749998D02*
X140522889Y-81130951D01*
X139522889Y-80273808D02*
X139522889Y-80464284D01*
X139522889Y-80464284D02*
X139570508Y-80559522D01*
X139570508Y-80559522D02*
X139618127Y-80607141D01*
X139618127Y-80607141D02*
X139760984Y-80702379D01*
X139760984Y-80702379D02*
X139951460Y-80749998D01*
X139951460Y-80749998D02*
X140332412Y-80749998D01*
X140332412Y-80749998D02*
X140427650Y-80702379D01*
X140427650Y-80702379D02*
X140475270Y-80654760D01*
X140475270Y-80654760D02*
X140522889Y-80559522D01*
X140522889Y-80559522D02*
X140522889Y-80369046D01*
X140522889Y-80369046D02*
X140475270Y-80273808D01*
X140475270Y-80273808D02*
X140427650Y-80226189D01*
X140427650Y-80226189D02*
X140332412Y-80178570D01*
X140332412Y-80178570D02*
X140094317Y-80178570D01*
X140094317Y-80178570D02*
X139999079Y-80226189D01*
X139999079Y-80226189D02*
X139951460Y-80273808D01*
X139951460Y-80273808D02*
X139903841Y-80369046D01*
X139903841Y-80369046D02*
X139903841Y-80559522D01*
X139903841Y-80559522D02*
X139951460Y-80654760D01*
X139951460Y-80654760D02*
X139999079Y-80702379D01*
X139999079Y-80702379D02*
X140094317Y-80749998D01*
D11*
X93494819Y-95743333D02*
X94209104Y-95743333D01*
X94209104Y-95743333D02*
X94351961Y-95790952D01*
X94351961Y-95790952D02*
X94447200Y-95886190D01*
X94447200Y-95886190D02*
X94494819Y-96029047D01*
X94494819Y-96029047D02*
X94494819Y-96124285D01*
X94494819Y-94743333D02*
X94494819Y-95314761D01*
X94494819Y-95029047D02*
X93494819Y-95029047D01*
X93494819Y-95029047D02*
X93637676Y-95124285D01*
X93637676Y-95124285D02*
X93732914Y-95219523D01*
X93732914Y-95219523D02*
X93780533Y-95314761D01*
%TO.C,J1*%
D12*
X92920000Y-71500000D02*
G75*
G02*
X92720000Y-71500000I-100000J0D01*
G01*
X92720000Y-71500000D02*
G75*
G02*
X92920000Y-71500000I100000J0D01*
G01*
%TD*%
%LPC*%
D13*
%TO.C,J1*%
X90120000Y-71500000D03*
X90120000Y-72000000D03*
X90120000Y-72500000D03*
X90120000Y-73000000D03*
X90120000Y-73500000D03*
X90120000Y-74000000D03*
X90120000Y-74500000D03*
X90120000Y-75000000D03*
X90120000Y-75500000D03*
X90120000Y-76000000D03*
X90120000Y-76500000D03*
X90120000Y-77000000D03*
X90120000Y-77500000D03*
X90120000Y-78000000D03*
X90120000Y-78500000D03*
X90120000Y-79000000D03*
X90120000Y-79500000D03*
X90120000Y-80000000D03*
X90120000Y-80500000D03*
X90120000Y-81000000D03*
X90120000Y-81500000D03*
X90120000Y-82000000D03*
X90120000Y-82500000D03*
X90120000Y-83000000D03*
X90120000Y-83500000D03*
X90120000Y-84000000D03*
X90120000Y-84500000D03*
X90120000Y-85000000D03*
X90120000Y-85500000D03*
X90120000Y-86000000D03*
X90120000Y-86500000D03*
X90120000Y-87000000D03*
X90120000Y-87500000D03*
X90120000Y-88000000D03*
X90120000Y-88500000D03*
X90120000Y-89000000D03*
X90120000Y-89500000D03*
X90120000Y-90000000D03*
X90120000Y-90500000D03*
X90120000Y-91000000D03*
X90120000Y-91500000D03*
X90120000Y-92000000D03*
X90120000Y-92500000D03*
X90120000Y-93000000D03*
X90120000Y-93500000D03*
X90120000Y-94000000D03*
X90120000Y-94500000D03*
X90120000Y-95000000D03*
X90120000Y-95500000D03*
X90120000Y-96000000D03*
%TD*%
%LPD*%
M02*
