M48
; DRILL file KiCad 10.0.1 date 2026-07-31T17:18:54
; FORMAT={-:-/ absolute / inch / decimal}
; #@! TF.CreationDate,2026-07-31T17:18:54-05:00
; #@! TF.GenerationSoftware,Kicad,Pcbnew,10.0.1
; #@! TF.FileFunction,Plated,1,2,PTH
FMAT,2
INCH
; #@! TA.AperFunction,Plated,PTH,ViaDrill
T1C0.0118
%
G90
G05
T1
X3.6657Y-3.3736
X3.6693Y-3.0969
X3.6722Y-3.5653
X3.673Y-3.2656
X3.6752Y-3.6787
X3.6929Y-3.4413
X3.7035Y-3.335
X3.7047Y-3.5079
X3.7114Y-3.7378
X3.7124Y-3.0415
X3.7189Y-3.6189
X3.7197Y-3.2087
X3.7272Y-3.1386
X7.098Y-3.1228
X7.1559Y-3.1211
X7.1566Y-3.055
X7.1566Y-3.0884
X7.1665Y-3.578
X7.1669Y-3.6957
X7.1669Y-3.7272
X7.1677Y-3.6091
X7.1862Y-3.0252
X7.1868Y-3.0975
X7.2137Y-3.0252
X7.2152Y-3.2455
X7.2382Y-3.2189
X7.2405Y-3.6421
X7.2406Y-3.5232
X7.2413Y-3.6732
X7.2417Y-3.5543
X7.2448Y-3.3961
X7.2457Y-3.4272
X7.2701Y-3.4516
X7.2772Y-3.5701
X7.2773Y-2.9882
X7.2809Y-3.6963
X7.2831Y-3.3783
X7.2882Y-3.1992
X7.289Y-2.8898
X7.3012Y-3.2791
X7.3031Y-3.315
X7.3196Y-2.8736
X7.3211Y-3.0128
X7.3256Y-3.1819
X7.3394Y-3.6256
X7.3421Y-3.7404
X7.3437Y-3.772
X7.3449Y-2.8548
X7.3484Y-2.9217
X7.35Y-3.5079
X7.3536Y-3.1673
X7.3573Y-3.3522
X7.3776Y-2.8394
X7.3783Y-3.4933
X7.3791Y-3.4618
X7.3846Y-3.1622
X7.3858Y-3.0492
X7.3921Y-3.2728
X7.3953Y-3.7379
X7.4052Y-3.3448
X7.4055Y-2.822
X7.4299Y-2.9366
M30
