%TF.GenerationSoftware,KiCad,Pcbnew,10.0.1*%
%TF.CreationDate,2026-09-17T11:45:53-05:00*%
%TF.ProjectId,ASI6200_cable,41534936-3230-4305-9f63-61626c652e6b,rev?*%
%TF.SameCoordinates,Original*%
%TF.FileFunction,Legend,Bot*%
%TF.FilePolarity,Positive*%
%FSLAX46Y46*%
G04 Gerber Fmt 4.6, Leading zero omitted, Abs format (unit mm)*
G04 Created by KiCad (PCBNEW 10.0.1) date 2026-09-17 11:45:53*
%MOMM*%
%LPD*%
G01*
G04 APERTURE LIST*
%ADD10C,0.100000*%
G04 APERTURE END LIST*
D10*
X96674800Y-79696265D02*
X96722419Y-79839122D01*
X96722419Y-79839122D02*
X96722419Y-80077217D01*
X96722419Y-80077217D02*
X96674800Y-80172455D01*
X96674800Y-80172455D02*
X96627180Y-80220074D01*
X96627180Y-80220074D02*
X96531942Y-80267693D01*
X96531942Y-80267693D02*
X96436704Y-80267693D01*
X96436704Y-80267693D02*
X96341466Y-80220074D01*
X96341466Y-80220074D02*
X96293847Y-80172455D01*
X96293847Y-80172455D02*
X96246228Y-80077217D01*
X96246228Y-80077217D02*
X96198609Y-79886741D01*
X96198609Y-79886741D02*
X96150990Y-79791503D01*
X96150990Y-79791503D02*
X96103371Y-79743884D01*
X96103371Y-79743884D02*
X96008133Y-79696265D01*
X96008133Y-79696265D02*
X95912895Y-79696265D01*
X95912895Y-79696265D02*
X95817657Y-79743884D01*
X95817657Y-79743884D02*
X95770038Y-79791503D01*
X95770038Y-79791503D02*
X95722419Y-79886741D01*
X95722419Y-79886741D02*
X95722419Y-80124836D01*
X95722419Y-80124836D02*
X95770038Y-80267693D01*
X96674800Y-81077217D02*
X96722419Y-80981979D01*
X96722419Y-80981979D02*
X96722419Y-80791503D01*
X96722419Y-80791503D02*
X96674800Y-80696265D01*
X96674800Y-80696265D02*
X96579561Y-80648646D01*
X96579561Y-80648646D02*
X96198609Y-80648646D01*
X96198609Y-80648646D02*
X96103371Y-80696265D01*
X96103371Y-80696265D02*
X96055752Y-80791503D01*
X96055752Y-80791503D02*
X96055752Y-80981979D01*
X96055752Y-80981979D02*
X96103371Y-81077217D01*
X96103371Y-81077217D02*
X96198609Y-81124836D01*
X96198609Y-81124836D02*
X96293847Y-81124836D01*
X96293847Y-81124836D02*
X96389085Y-80648646D01*
X96055752Y-81553408D02*
X96722419Y-81553408D01*
X96150990Y-81553408D02*
X96103371Y-81601027D01*
X96103371Y-81601027D02*
X96055752Y-81696265D01*
X96055752Y-81696265D02*
X96055752Y-81839122D01*
X96055752Y-81839122D02*
X96103371Y-81934360D01*
X96103371Y-81934360D02*
X96198609Y-81981979D01*
X96198609Y-81981979D02*
X96722419Y-81981979D01*
X96674800Y-82410551D02*
X96722419Y-82505789D01*
X96722419Y-82505789D02*
X96722419Y-82696265D01*
X96722419Y-82696265D02*
X96674800Y-82791503D01*
X96674800Y-82791503D02*
X96579561Y-82839122D01*
X96579561Y-82839122D02*
X96531942Y-82839122D01*
X96531942Y-82839122D02*
X96436704Y-82791503D01*
X96436704Y-82791503D02*
X96389085Y-82696265D01*
X96389085Y-82696265D02*
X96389085Y-82553408D01*
X96389085Y-82553408D02*
X96341466Y-82458170D01*
X96341466Y-82458170D02*
X96246228Y-82410551D01*
X96246228Y-82410551D02*
X96198609Y-82410551D01*
X96198609Y-82410551D02*
X96103371Y-82458170D01*
X96103371Y-82458170D02*
X96055752Y-82553408D01*
X96055752Y-82553408D02*
X96055752Y-82696265D01*
X96055752Y-82696265D02*
X96103371Y-82791503D01*
X96722419Y-83410551D02*
X96674800Y-83315313D01*
X96674800Y-83315313D02*
X96627180Y-83267694D01*
X96627180Y-83267694D02*
X96531942Y-83220075D01*
X96531942Y-83220075D02*
X96246228Y-83220075D01*
X96246228Y-83220075D02*
X96150990Y-83267694D01*
X96150990Y-83267694D02*
X96103371Y-83315313D01*
X96103371Y-83315313D02*
X96055752Y-83410551D01*
X96055752Y-83410551D02*
X96055752Y-83553408D01*
X96055752Y-83553408D02*
X96103371Y-83648646D01*
X96103371Y-83648646D02*
X96150990Y-83696265D01*
X96150990Y-83696265D02*
X96246228Y-83743884D01*
X96246228Y-83743884D02*
X96531942Y-83743884D01*
X96531942Y-83743884D02*
X96627180Y-83696265D01*
X96627180Y-83696265D02*
X96674800Y-83648646D01*
X96674800Y-83648646D02*
X96722419Y-83553408D01*
X96722419Y-83553408D02*
X96722419Y-83410551D01*
X96722419Y-84172456D02*
X96055752Y-84172456D01*
X96246228Y-84172456D02*
X96150990Y-84220075D01*
X96150990Y-84220075D02*
X96103371Y-84267694D01*
X96103371Y-84267694D02*
X96055752Y-84362932D01*
X96055752Y-84362932D02*
X96055752Y-84458170D01*
X96674800Y-85505790D02*
X96722419Y-85648647D01*
X96722419Y-85648647D02*
X96722419Y-85886742D01*
X96722419Y-85886742D02*
X96674800Y-85981980D01*
X96674800Y-85981980D02*
X96627180Y-86029599D01*
X96627180Y-86029599D02*
X96531942Y-86077218D01*
X96531942Y-86077218D02*
X96436704Y-86077218D01*
X96436704Y-86077218D02*
X96341466Y-86029599D01*
X96341466Y-86029599D02*
X96293847Y-85981980D01*
X96293847Y-85981980D02*
X96246228Y-85886742D01*
X96246228Y-85886742D02*
X96198609Y-85696266D01*
X96198609Y-85696266D02*
X96150990Y-85601028D01*
X96150990Y-85601028D02*
X96103371Y-85553409D01*
X96103371Y-85553409D02*
X96008133Y-85505790D01*
X96008133Y-85505790D02*
X95912895Y-85505790D01*
X95912895Y-85505790D02*
X95817657Y-85553409D01*
X95817657Y-85553409D02*
X95770038Y-85601028D01*
X95770038Y-85601028D02*
X95722419Y-85696266D01*
X95722419Y-85696266D02*
X95722419Y-85934361D01*
X95722419Y-85934361D02*
X95770038Y-86077218D01*
X96722419Y-86505790D02*
X96055752Y-86505790D01*
X95722419Y-86505790D02*
X95770038Y-86458171D01*
X95770038Y-86458171D02*
X95817657Y-86505790D01*
X95817657Y-86505790D02*
X95770038Y-86553409D01*
X95770038Y-86553409D02*
X95722419Y-86505790D01*
X95722419Y-86505790D02*
X95817657Y-86505790D01*
X96722419Y-87410551D02*
X95722419Y-87410551D01*
X96674800Y-87410551D02*
X96722419Y-87315313D01*
X96722419Y-87315313D02*
X96722419Y-87124837D01*
X96722419Y-87124837D02*
X96674800Y-87029599D01*
X96674800Y-87029599D02*
X96627180Y-86981980D01*
X96627180Y-86981980D02*
X96531942Y-86934361D01*
X96531942Y-86934361D02*
X96246228Y-86934361D01*
X96246228Y-86934361D02*
X96150990Y-86981980D01*
X96150990Y-86981980D02*
X96103371Y-87029599D01*
X96103371Y-87029599D02*
X96055752Y-87124837D01*
X96055752Y-87124837D02*
X96055752Y-87315313D01*
X96055752Y-87315313D02*
X96103371Y-87410551D01*
X96674800Y-88267694D02*
X96722419Y-88172456D01*
X96722419Y-88172456D02*
X96722419Y-87981980D01*
X96722419Y-87981980D02*
X96674800Y-87886742D01*
X96674800Y-87886742D02*
X96579561Y-87839123D01*
X96579561Y-87839123D02*
X96198609Y-87839123D01*
X96198609Y-87839123D02*
X96103371Y-87886742D01*
X96103371Y-87886742D02*
X96055752Y-87981980D01*
X96055752Y-87981980D02*
X96055752Y-88172456D01*
X96055752Y-88172456D02*
X96103371Y-88267694D01*
X96103371Y-88267694D02*
X96198609Y-88315313D01*
X96198609Y-88315313D02*
X96293847Y-88315313D01*
X96293847Y-88315313D02*
X96389085Y-87839123D01*
X186992419Y-77623884D02*
X185992419Y-77623884D01*
X185992419Y-77623884D02*
X186706704Y-77957217D01*
X186706704Y-77957217D02*
X185992419Y-78290550D01*
X185992419Y-78290550D02*
X186992419Y-78290550D01*
X186992419Y-78909598D02*
X186944800Y-78814360D01*
X186944800Y-78814360D02*
X186897180Y-78766741D01*
X186897180Y-78766741D02*
X186801942Y-78719122D01*
X186801942Y-78719122D02*
X186516228Y-78719122D01*
X186516228Y-78719122D02*
X186420990Y-78766741D01*
X186420990Y-78766741D02*
X186373371Y-78814360D01*
X186373371Y-78814360D02*
X186325752Y-78909598D01*
X186325752Y-78909598D02*
X186325752Y-79052455D01*
X186325752Y-79052455D02*
X186373371Y-79147693D01*
X186373371Y-79147693D02*
X186420990Y-79195312D01*
X186420990Y-79195312D02*
X186516228Y-79242931D01*
X186516228Y-79242931D02*
X186801942Y-79242931D01*
X186801942Y-79242931D02*
X186897180Y-79195312D01*
X186897180Y-79195312D02*
X186944800Y-79147693D01*
X186944800Y-79147693D02*
X186992419Y-79052455D01*
X186992419Y-79052455D02*
X186992419Y-78909598D01*
X186325752Y-79528646D02*
X186325752Y-79909598D01*
X185992419Y-79671503D02*
X186849561Y-79671503D01*
X186849561Y-79671503D02*
X186944800Y-79719122D01*
X186944800Y-79719122D02*
X186992419Y-79814360D01*
X186992419Y-79814360D02*
X186992419Y-79909598D01*
X186992419Y-80242932D02*
X185992419Y-80242932D01*
X186992419Y-80671503D02*
X186468609Y-80671503D01*
X186468609Y-80671503D02*
X186373371Y-80623884D01*
X186373371Y-80623884D02*
X186325752Y-80528646D01*
X186325752Y-80528646D02*
X186325752Y-80385789D01*
X186325752Y-80385789D02*
X186373371Y-80290551D01*
X186373371Y-80290551D02*
X186420990Y-80242932D01*
X186944800Y-81528646D02*
X186992419Y-81433408D01*
X186992419Y-81433408D02*
X186992419Y-81242932D01*
X186992419Y-81242932D02*
X186944800Y-81147694D01*
X186944800Y-81147694D02*
X186849561Y-81100075D01*
X186849561Y-81100075D02*
X186468609Y-81100075D01*
X186468609Y-81100075D02*
X186373371Y-81147694D01*
X186373371Y-81147694D02*
X186325752Y-81242932D01*
X186325752Y-81242932D02*
X186325752Y-81433408D01*
X186325752Y-81433408D02*
X186373371Y-81528646D01*
X186373371Y-81528646D02*
X186468609Y-81576265D01*
X186468609Y-81576265D02*
X186563847Y-81576265D01*
X186563847Y-81576265D02*
X186659085Y-81100075D01*
X186992419Y-82004837D02*
X186325752Y-82004837D01*
X186516228Y-82004837D02*
X186420990Y-82052456D01*
X186420990Y-82052456D02*
X186373371Y-82100075D01*
X186373371Y-82100075D02*
X186325752Y-82195313D01*
X186325752Y-82195313D02*
X186325752Y-82290551D01*
X186992419Y-82623885D02*
X185992419Y-82623885D01*
X186373371Y-82623885D02*
X186325752Y-82719123D01*
X186325752Y-82719123D02*
X186325752Y-82909599D01*
X186325752Y-82909599D02*
X186373371Y-83004837D01*
X186373371Y-83004837D02*
X186420990Y-83052456D01*
X186420990Y-83052456D02*
X186516228Y-83100075D01*
X186516228Y-83100075D02*
X186801942Y-83100075D01*
X186801942Y-83100075D02*
X186897180Y-83052456D01*
X186897180Y-83052456D02*
X186944800Y-83004837D01*
X186944800Y-83004837D02*
X186992419Y-82909599D01*
X186992419Y-82909599D02*
X186992419Y-82719123D01*
X186992419Y-82719123D02*
X186944800Y-82623885D01*
X186992419Y-83671504D02*
X186944800Y-83576266D01*
X186944800Y-83576266D02*
X186897180Y-83528647D01*
X186897180Y-83528647D02*
X186801942Y-83481028D01*
X186801942Y-83481028D02*
X186516228Y-83481028D01*
X186516228Y-83481028D02*
X186420990Y-83528647D01*
X186420990Y-83528647D02*
X186373371Y-83576266D01*
X186373371Y-83576266D02*
X186325752Y-83671504D01*
X186325752Y-83671504D02*
X186325752Y-83814361D01*
X186325752Y-83814361D02*
X186373371Y-83909599D01*
X186373371Y-83909599D02*
X186420990Y-83957218D01*
X186420990Y-83957218D02*
X186516228Y-84004837D01*
X186516228Y-84004837D02*
X186801942Y-84004837D01*
X186801942Y-84004837D02*
X186897180Y-83957218D01*
X186897180Y-83957218D02*
X186944800Y-83909599D01*
X186944800Y-83909599D02*
X186992419Y-83814361D01*
X186992419Y-83814361D02*
X186992419Y-83671504D01*
X186992419Y-84861980D02*
X186468609Y-84861980D01*
X186468609Y-84861980D02*
X186373371Y-84814361D01*
X186373371Y-84814361D02*
X186325752Y-84719123D01*
X186325752Y-84719123D02*
X186325752Y-84528647D01*
X186325752Y-84528647D02*
X186373371Y-84433409D01*
X186944800Y-84861980D02*
X186992419Y-84766742D01*
X186992419Y-84766742D02*
X186992419Y-84528647D01*
X186992419Y-84528647D02*
X186944800Y-84433409D01*
X186944800Y-84433409D02*
X186849561Y-84385790D01*
X186849561Y-84385790D02*
X186754323Y-84385790D01*
X186754323Y-84385790D02*
X186659085Y-84433409D01*
X186659085Y-84433409D02*
X186611466Y-84528647D01*
X186611466Y-84528647D02*
X186611466Y-84766742D01*
X186611466Y-84766742D02*
X186563847Y-84861980D01*
X186992419Y-85338171D02*
X186325752Y-85338171D01*
X186516228Y-85338171D02*
X186420990Y-85385790D01*
X186420990Y-85385790D02*
X186373371Y-85433409D01*
X186373371Y-85433409D02*
X186325752Y-85528647D01*
X186325752Y-85528647D02*
X186325752Y-85623885D01*
X186992419Y-86385790D02*
X185992419Y-86385790D01*
X186944800Y-86385790D02*
X186992419Y-86290552D01*
X186992419Y-86290552D02*
X186992419Y-86100076D01*
X186992419Y-86100076D02*
X186944800Y-86004838D01*
X186944800Y-86004838D02*
X186897180Y-85957219D01*
X186897180Y-85957219D02*
X186801942Y-85909600D01*
X186801942Y-85909600D02*
X186516228Y-85909600D01*
X186516228Y-85909600D02*
X186420990Y-85957219D01*
X186420990Y-85957219D02*
X186373371Y-86004838D01*
X186373371Y-86004838D02*
X186325752Y-86100076D01*
X186325752Y-86100076D02*
X186325752Y-86290552D01*
X186325752Y-86290552D02*
X186373371Y-86385790D01*
X186944800Y-87576267D02*
X186992419Y-87719124D01*
X186992419Y-87719124D02*
X186992419Y-87957219D01*
X186992419Y-87957219D02*
X186944800Y-88052457D01*
X186944800Y-88052457D02*
X186897180Y-88100076D01*
X186897180Y-88100076D02*
X186801942Y-88147695D01*
X186801942Y-88147695D02*
X186706704Y-88147695D01*
X186706704Y-88147695D02*
X186611466Y-88100076D01*
X186611466Y-88100076D02*
X186563847Y-88052457D01*
X186563847Y-88052457D02*
X186516228Y-87957219D01*
X186516228Y-87957219D02*
X186468609Y-87766743D01*
X186468609Y-87766743D02*
X186420990Y-87671505D01*
X186420990Y-87671505D02*
X186373371Y-87623886D01*
X186373371Y-87623886D02*
X186278133Y-87576267D01*
X186278133Y-87576267D02*
X186182895Y-87576267D01*
X186182895Y-87576267D02*
X186087657Y-87623886D01*
X186087657Y-87623886D02*
X186040038Y-87671505D01*
X186040038Y-87671505D02*
X185992419Y-87766743D01*
X185992419Y-87766743D02*
X185992419Y-88004838D01*
X185992419Y-88004838D02*
X186040038Y-88147695D01*
X186992419Y-88576267D02*
X186325752Y-88576267D01*
X185992419Y-88576267D02*
X186040038Y-88528648D01*
X186040038Y-88528648D02*
X186087657Y-88576267D01*
X186087657Y-88576267D02*
X186040038Y-88623886D01*
X186040038Y-88623886D02*
X185992419Y-88576267D01*
X185992419Y-88576267D02*
X186087657Y-88576267D01*
X186992419Y-89481028D02*
X185992419Y-89481028D01*
X186944800Y-89481028D02*
X186992419Y-89385790D01*
X186992419Y-89385790D02*
X186992419Y-89195314D01*
X186992419Y-89195314D02*
X186944800Y-89100076D01*
X186944800Y-89100076D02*
X186897180Y-89052457D01*
X186897180Y-89052457D02*
X186801942Y-89004838D01*
X186801942Y-89004838D02*
X186516228Y-89004838D01*
X186516228Y-89004838D02*
X186420990Y-89052457D01*
X186420990Y-89052457D02*
X186373371Y-89100076D01*
X186373371Y-89100076D02*
X186325752Y-89195314D01*
X186325752Y-89195314D02*
X186325752Y-89385790D01*
X186325752Y-89385790D02*
X186373371Y-89481028D01*
X186944800Y-90338171D02*
X186992419Y-90242933D01*
X186992419Y-90242933D02*
X186992419Y-90052457D01*
X186992419Y-90052457D02*
X186944800Y-89957219D01*
X186944800Y-89957219D02*
X186849561Y-89909600D01*
X186849561Y-89909600D02*
X186468609Y-89909600D01*
X186468609Y-89909600D02*
X186373371Y-89957219D01*
X186373371Y-89957219D02*
X186325752Y-90052457D01*
X186325752Y-90052457D02*
X186325752Y-90242933D01*
X186325752Y-90242933D02*
X186373371Y-90338171D01*
X186373371Y-90338171D02*
X186468609Y-90385790D01*
X186468609Y-90385790D02*
X186563847Y-90385790D01*
X186563847Y-90385790D02*
X186659085Y-89909600D01*
X92443884Y-71467580D02*
X92443884Y-72467580D01*
X92443884Y-72467580D02*
X92824836Y-72467580D01*
X92824836Y-72467580D02*
X92920074Y-72419961D01*
X92920074Y-72419961D02*
X92967693Y-72372342D01*
X92967693Y-72372342D02*
X93015312Y-72277104D01*
X93015312Y-72277104D02*
X93015312Y-72134247D01*
X93015312Y-72134247D02*
X92967693Y-72039009D01*
X92967693Y-72039009D02*
X92920074Y-71991390D01*
X92920074Y-71991390D02*
X92824836Y-71943771D01*
X92824836Y-71943771D02*
X92443884Y-71943771D01*
X93443884Y-71467580D02*
X93443884Y-72134247D01*
X93443884Y-72467580D02*
X93396265Y-72419961D01*
X93396265Y-72419961D02*
X93443884Y-72372342D01*
X93443884Y-72372342D02*
X93491503Y-72419961D01*
X93491503Y-72419961D02*
X93443884Y-72467580D01*
X93443884Y-72467580D02*
X93443884Y-72372342D01*
X93920074Y-72134247D02*
X93920074Y-71467580D01*
X93920074Y-72039009D02*
X93967693Y-72086628D01*
X93967693Y-72086628D02*
X94062931Y-72134247D01*
X94062931Y-72134247D02*
X94205788Y-72134247D01*
X94205788Y-72134247D02*
X94301026Y-72086628D01*
X94301026Y-72086628D02*
X94348645Y-71991390D01*
X94348645Y-71991390D02*
X94348645Y-71467580D01*
X95348645Y-71467580D02*
X94777217Y-71467580D01*
X95062931Y-71467580D02*
X95062931Y-72467580D01*
X95062931Y-72467580D02*
X94967693Y-72324723D01*
X94967693Y-72324723D02*
X94872455Y-72229485D01*
X94872455Y-72229485D02*
X94777217Y-72181866D01*
X186143884Y-71517580D02*
X186143884Y-72517580D01*
X186143884Y-72517580D02*
X186524836Y-72517580D01*
X186524836Y-72517580D02*
X186620074Y-72469961D01*
X186620074Y-72469961D02*
X186667693Y-72422342D01*
X186667693Y-72422342D02*
X186715312Y-72327104D01*
X186715312Y-72327104D02*
X186715312Y-72184247D01*
X186715312Y-72184247D02*
X186667693Y-72089009D01*
X186667693Y-72089009D02*
X186620074Y-72041390D01*
X186620074Y-72041390D02*
X186524836Y-71993771D01*
X186524836Y-71993771D02*
X186143884Y-71993771D01*
X187143884Y-71517580D02*
X187143884Y-72184247D01*
X187143884Y-72517580D02*
X187096265Y-72469961D01*
X187096265Y-72469961D02*
X187143884Y-72422342D01*
X187143884Y-72422342D02*
X187191503Y-72469961D01*
X187191503Y-72469961D02*
X187143884Y-72517580D01*
X187143884Y-72517580D02*
X187143884Y-72422342D01*
X187620074Y-72184247D02*
X187620074Y-71517580D01*
X187620074Y-72089009D02*
X187667693Y-72136628D01*
X187667693Y-72136628D02*
X187762931Y-72184247D01*
X187762931Y-72184247D02*
X187905788Y-72184247D01*
X187905788Y-72184247D02*
X188001026Y-72136628D01*
X188001026Y-72136628D02*
X188048645Y-72041390D01*
X188048645Y-72041390D02*
X188048645Y-71517580D01*
X189048645Y-71517580D02*
X188477217Y-71517580D01*
X188762931Y-71517580D02*
X188762931Y-72517580D01*
X188762931Y-72517580D02*
X188667693Y-72374723D01*
X188667693Y-72374723D02*
X188572455Y-72279485D01*
X188572455Y-72279485D02*
X188477217Y-72231866D01*
%LPC*%
%LPD*%
M02*
