M48
; DRILL file KiCad 10.0.1 date 2026-09-17T11:45:53
; FORMAT={-:-/ absolute / inch / decimal}
; #@! TF.CreationDate,2026-09-17T11:45:53-05:00
; #@! TF.GenerationSoftware,Kicad,Pcbnew,10.0.1
; #@! TF.FileFunction,Plated,1,2,PTH
FMAT,2
INCH
; #@! TA.AperFunction,Plated,PTH,ViaDrill
T1C0.0118
%
G90
G05
T1
X3.6657Y-3.3736
X3.6693Y-3.0969
X3.6722Y-3.5653
X3.6752Y-3.6787
X3.6811Y-3.2656
X3.6929Y-3.4413
X3.7035Y-3.335
X3.7047Y-3.5079
X3.7114Y-3.7378
X3.7124Y-3.0415
X3.7189Y-3.6189
X3.7197Y-3.2087
X3.7272Y-3.1386
X7.1382Y-3.2378
X7.1965Y-3.1929
X7.2311Y-3.7283
X7.2449Y-3.1374
X7.2539Y-3.4287
X7.3047Y-3.0921
X7.3193Y-3.3638
X7.3197Y-3.6732
X7.3256Y-3.5575
X7.3701Y-3.0504
X7.3795Y-3.628
X7.3874Y-3.3289
X7.3878Y-3.5102
M30
