%TF.GenerationSoftware,KiCad,Pcbnew,10.0.1*%
%TF.CreationDate,2026-09-17T11:45:53-05:00*%
%TF.ProjectId,ASI6200_cable,41534936-3230-4305-9f63-61626c652e6b,rev?*%
%TF.SameCoordinates,Original*%
%TF.FileFunction,Legend,Top*%
%TF.FilePolarity,Positive*%
%FSLAX46Y46*%
G04 Gerber Fmt 4.6, Leading zero omitted, Abs format (unit mm)*
G04 Created by KiCad (PCBNEW 10.0.1) date 2026-09-17 11:45:53*
%MOMM*%
%LPD*%
G01*
G04 APERTURE LIST*
G04 Aperture macros list*
%AMRoundRect*
0 Rectangle with rounded corners*
0 $1 Rounding radius*
0 $2 $3 $4 $5 $6 $7 $8 $9 X,Y pos of 4 corners*
0 Add a 4 corners polygon primitive as box body*
4,1,4,$2,$3,$4,$5,$6,$7,$8,$9,$2,$3,0*
0 Add four circle primitives for the rounded corners*
1,1,$1+$1,$2,$3*
1,1,$1+$1,$4,$5*
1,1,$1+$1,$6,$7*
1,1,$1+$1,$8,$9*
0 Add four rect primitives between the rounded corners*
20,1,$1+$1,$2,$3,$4,$5,0*
20,1,$1+$1,$4,$5,$6,$7,0*
20,1,$1+$1,$6,$7,$8,$9,0*
20,1,$1+$1,$8,$9,$2,$3,0*%
G04 Aperture macros list end*
%ADD10C,0.100000*%
%ADD11RoundRect,0.050000X1.750000X-0.150000X1.750000X0.150000X-1.750000X0.150000X-1.750000X-0.150000X0*%
G04 APERTURE END LIST*
D10*
X92403884Y-72302419D02*
X92403884Y-71302419D01*
X92403884Y-71302419D02*
X92784836Y-71302419D01*
X92784836Y-71302419D02*
X92880074Y-71350038D01*
X92880074Y-71350038D02*
X92927693Y-71397657D01*
X92927693Y-71397657D02*
X92975312Y-71492895D01*
X92975312Y-71492895D02*
X92975312Y-71635752D01*
X92975312Y-71635752D02*
X92927693Y-71730990D01*
X92927693Y-71730990D02*
X92880074Y-71778609D01*
X92880074Y-71778609D02*
X92784836Y-71826228D01*
X92784836Y-71826228D02*
X92403884Y-71826228D01*
X93403884Y-72302419D02*
X93403884Y-71635752D01*
X93403884Y-71302419D02*
X93356265Y-71350038D01*
X93356265Y-71350038D02*
X93403884Y-71397657D01*
X93403884Y-71397657D02*
X93451503Y-71350038D01*
X93451503Y-71350038D02*
X93403884Y-71302419D01*
X93403884Y-71302419D02*
X93403884Y-71397657D01*
X93880074Y-71635752D02*
X93880074Y-72302419D01*
X93880074Y-71730990D02*
X93927693Y-71683371D01*
X93927693Y-71683371D02*
X94022931Y-71635752D01*
X94022931Y-71635752D02*
X94165788Y-71635752D01*
X94165788Y-71635752D02*
X94261026Y-71683371D01*
X94261026Y-71683371D02*
X94308645Y-71778609D01*
X94308645Y-71778609D02*
X94308645Y-72302419D01*
X95308645Y-72302419D02*
X94737217Y-72302419D01*
X95022931Y-72302419D02*
X95022931Y-71302419D01*
X95022931Y-71302419D02*
X94927693Y-71445276D01*
X94927693Y-71445276D02*
X94832455Y-71540514D01*
X94832455Y-71540514D02*
X94737217Y-71588133D01*
X186083884Y-72382419D02*
X186083884Y-71382419D01*
X186083884Y-71382419D02*
X186464836Y-71382419D01*
X186464836Y-71382419D02*
X186560074Y-71430038D01*
X186560074Y-71430038D02*
X186607693Y-71477657D01*
X186607693Y-71477657D02*
X186655312Y-71572895D01*
X186655312Y-71572895D02*
X186655312Y-71715752D01*
X186655312Y-71715752D02*
X186607693Y-71810990D01*
X186607693Y-71810990D02*
X186560074Y-71858609D01*
X186560074Y-71858609D02*
X186464836Y-71906228D01*
X186464836Y-71906228D02*
X186083884Y-71906228D01*
X187083884Y-72382419D02*
X187083884Y-71715752D01*
X187083884Y-71382419D02*
X187036265Y-71430038D01*
X187036265Y-71430038D02*
X187083884Y-71477657D01*
X187083884Y-71477657D02*
X187131503Y-71430038D01*
X187131503Y-71430038D02*
X187083884Y-71382419D01*
X187083884Y-71382419D02*
X187083884Y-71477657D01*
X187560074Y-71715752D02*
X187560074Y-72382419D01*
X187560074Y-71810990D02*
X187607693Y-71763371D01*
X187607693Y-71763371D02*
X187702931Y-71715752D01*
X187702931Y-71715752D02*
X187845788Y-71715752D01*
X187845788Y-71715752D02*
X187941026Y-71763371D01*
X187941026Y-71763371D02*
X187988645Y-71858609D01*
X187988645Y-71858609D02*
X187988645Y-72382419D01*
X188988645Y-72382419D02*
X188417217Y-72382419D01*
X188702931Y-72382419D02*
X188702931Y-71382419D01*
X188702931Y-71382419D02*
X188607693Y-71525276D01*
X188607693Y-71525276D02*
X188512455Y-71620514D01*
X188512455Y-71620514D02*
X188417217Y-71668133D01*
X96684800Y-87943734D02*
X96732419Y-87800877D01*
X96732419Y-87800877D02*
X96732419Y-87562782D01*
X96732419Y-87562782D02*
X96684800Y-87467544D01*
X96684800Y-87467544D02*
X96637180Y-87419925D01*
X96637180Y-87419925D02*
X96541942Y-87372306D01*
X96541942Y-87372306D02*
X96446704Y-87372306D01*
X96446704Y-87372306D02*
X96351466Y-87419925D01*
X96351466Y-87419925D02*
X96303847Y-87467544D01*
X96303847Y-87467544D02*
X96256228Y-87562782D01*
X96256228Y-87562782D02*
X96208609Y-87753258D01*
X96208609Y-87753258D02*
X96160990Y-87848496D01*
X96160990Y-87848496D02*
X96113371Y-87896115D01*
X96113371Y-87896115D02*
X96018133Y-87943734D01*
X96018133Y-87943734D02*
X95922895Y-87943734D01*
X95922895Y-87943734D02*
X95827657Y-87896115D01*
X95827657Y-87896115D02*
X95780038Y-87848496D01*
X95780038Y-87848496D02*
X95732419Y-87753258D01*
X95732419Y-87753258D02*
X95732419Y-87515163D01*
X95732419Y-87515163D02*
X95780038Y-87372306D01*
X96684800Y-86562782D02*
X96732419Y-86658020D01*
X96732419Y-86658020D02*
X96732419Y-86848496D01*
X96732419Y-86848496D02*
X96684800Y-86943734D01*
X96684800Y-86943734D02*
X96589561Y-86991353D01*
X96589561Y-86991353D02*
X96208609Y-86991353D01*
X96208609Y-86991353D02*
X96113371Y-86943734D01*
X96113371Y-86943734D02*
X96065752Y-86848496D01*
X96065752Y-86848496D02*
X96065752Y-86658020D01*
X96065752Y-86658020D02*
X96113371Y-86562782D01*
X96113371Y-86562782D02*
X96208609Y-86515163D01*
X96208609Y-86515163D02*
X96303847Y-86515163D01*
X96303847Y-86515163D02*
X96399085Y-86991353D01*
X96065752Y-86086591D02*
X96732419Y-86086591D01*
X96160990Y-86086591D02*
X96113371Y-86038972D01*
X96113371Y-86038972D02*
X96065752Y-85943734D01*
X96065752Y-85943734D02*
X96065752Y-85800877D01*
X96065752Y-85800877D02*
X96113371Y-85705639D01*
X96113371Y-85705639D02*
X96208609Y-85658020D01*
X96208609Y-85658020D02*
X96732419Y-85658020D01*
X96684800Y-85229448D02*
X96732419Y-85134210D01*
X96732419Y-85134210D02*
X96732419Y-84943734D01*
X96732419Y-84943734D02*
X96684800Y-84848496D01*
X96684800Y-84848496D02*
X96589561Y-84800877D01*
X96589561Y-84800877D02*
X96541942Y-84800877D01*
X96541942Y-84800877D02*
X96446704Y-84848496D01*
X96446704Y-84848496D02*
X96399085Y-84943734D01*
X96399085Y-84943734D02*
X96399085Y-85086591D01*
X96399085Y-85086591D02*
X96351466Y-85181829D01*
X96351466Y-85181829D02*
X96256228Y-85229448D01*
X96256228Y-85229448D02*
X96208609Y-85229448D01*
X96208609Y-85229448D02*
X96113371Y-85181829D01*
X96113371Y-85181829D02*
X96065752Y-85086591D01*
X96065752Y-85086591D02*
X96065752Y-84943734D01*
X96065752Y-84943734D02*
X96113371Y-84848496D01*
X96732419Y-84229448D02*
X96684800Y-84324686D01*
X96684800Y-84324686D02*
X96637180Y-84372305D01*
X96637180Y-84372305D02*
X96541942Y-84419924D01*
X96541942Y-84419924D02*
X96256228Y-84419924D01*
X96256228Y-84419924D02*
X96160990Y-84372305D01*
X96160990Y-84372305D02*
X96113371Y-84324686D01*
X96113371Y-84324686D02*
X96065752Y-84229448D01*
X96065752Y-84229448D02*
X96065752Y-84086591D01*
X96065752Y-84086591D02*
X96113371Y-83991353D01*
X96113371Y-83991353D02*
X96160990Y-83943734D01*
X96160990Y-83943734D02*
X96256228Y-83896115D01*
X96256228Y-83896115D02*
X96541942Y-83896115D01*
X96541942Y-83896115D02*
X96637180Y-83943734D01*
X96637180Y-83943734D02*
X96684800Y-83991353D01*
X96684800Y-83991353D02*
X96732419Y-84086591D01*
X96732419Y-84086591D02*
X96732419Y-84229448D01*
X96732419Y-83467543D02*
X96065752Y-83467543D01*
X96256228Y-83467543D02*
X96160990Y-83419924D01*
X96160990Y-83419924D02*
X96113371Y-83372305D01*
X96113371Y-83372305D02*
X96065752Y-83277067D01*
X96065752Y-83277067D02*
X96065752Y-83181829D01*
X96684800Y-82134209D02*
X96732419Y-81991352D01*
X96732419Y-81991352D02*
X96732419Y-81753257D01*
X96732419Y-81753257D02*
X96684800Y-81658019D01*
X96684800Y-81658019D02*
X96637180Y-81610400D01*
X96637180Y-81610400D02*
X96541942Y-81562781D01*
X96541942Y-81562781D02*
X96446704Y-81562781D01*
X96446704Y-81562781D02*
X96351466Y-81610400D01*
X96351466Y-81610400D02*
X96303847Y-81658019D01*
X96303847Y-81658019D02*
X96256228Y-81753257D01*
X96256228Y-81753257D02*
X96208609Y-81943733D01*
X96208609Y-81943733D02*
X96160990Y-82038971D01*
X96160990Y-82038971D02*
X96113371Y-82086590D01*
X96113371Y-82086590D02*
X96018133Y-82134209D01*
X96018133Y-82134209D02*
X95922895Y-82134209D01*
X95922895Y-82134209D02*
X95827657Y-82086590D01*
X95827657Y-82086590D02*
X95780038Y-82038971D01*
X95780038Y-82038971D02*
X95732419Y-81943733D01*
X95732419Y-81943733D02*
X95732419Y-81705638D01*
X95732419Y-81705638D02*
X95780038Y-81562781D01*
X96732419Y-81134209D02*
X96065752Y-81134209D01*
X95732419Y-81134209D02*
X95780038Y-81181828D01*
X95780038Y-81181828D02*
X95827657Y-81134209D01*
X95827657Y-81134209D02*
X95780038Y-81086590D01*
X95780038Y-81086590D02*
X95732419Y-81134209D01*
X95732419Y-81134209D02*
X95827657Y-81134209D01*
X96732419Y-80229448D02*
X95732419Y-80229448D01*
X96684800Y-80229448D02*
X96732419Y-80324686D01*
X96732419Y-80324686D02*
X96732419Y-80515162D01*
X96732419Y-80515162D02*
X96684800Y-80610400D01*
X96684800Y-80610400D02*
X96637180Y-80658019D01*
X96637180Y-80658019D02*
X96541942Y-80705638D01*
X96541942Y-80705638D02*
X96256228Y-80705638D01*
X96256228Y-80705638D02*
X96160990Y-80658019D01*
X96160990Y-80658019D02*
X96113371Y-80610400D01*
X96113371Y-80610400D02*
X96065752Y-80515162D01*
X96065752Y-80515162D02*
X96065752Y-80324686D01*
X96065752Y-80324686D02*
X96113371Y-80229448D01*
X96684800Y-79372305D02*
X96732419Y-79467543D01*
X96732419Y-79467543D02*
X96732419Y-79658019D01*
X96732419Y-79658019D02*
X96684800Y-79753257D01*
X96684800Y-79753257D02*
X96589561Y-79800876D01*
X96589561Y-79800876D02*
X96208609Y-79800876D01*
X96208609Y-79800876D02*
X96113371Y-79753257D01*
X96113371Y-79753257D02*
X96065752Y-79658019D01*
X96065752Y-79658019D02*
X96065752Y-79467543D01*
X96065752Y-79467543D02*
X96113371Y-79372305D01*
X96113371Y-79372305D02*
X96208609Y-79324686D01*
X96208609Y-79324686D02*
X96303847Y-79324686D01*
X96303847Y-79324686D02*
X96399085Y-79800876D01*
X187132419Y-90306115D02*
X186132419Y-90306115D01*
X186132419Y-90306115D02*
X186846704Y-89972782D01*
X186846704Y-89972782D02*
X186132419Y-89639449D01*
X186132419Y-89639449D02*
X187132419Y-89639449D01*
X187132419Y-89020401D02*
X187084800Y-89115639D01*
X187084800Y-89115639D02*
X187037180Y-89163258D01*
X187037180Y-89163258D02*
X186941942Y-89210877D01*
X186941942Y-89210877D02*
X186656228Y-89210877D01*
X186656228Y-89210877D02*
X186560990Y-89163258D01*
X186560990Y-89163258D02*
X186513371Y-89115639D01*
X186513371Y-89115639D02*
X186465752Y-89020401D01*
X186465752Y-89020401D02*
X186465752Y-88877544D01*
X186465752Y-88877544D02*
X186513371Y-88782306D01*
X186513371Y-88782306D02*
X186560990Y-88734687D01*
X186560990Y-88734687D02*
X186656228Y-88687068D01*
X186656228Y-88687068D02*
X186941942Y-88687068D01*
X186941942Y-88687068D02*
X187037180Y-88734687D01*
X187037180Y-88734687D02*
X187084800Y-88782306D01*
X187084800Y-88782306D02*
X187132419Y-88877544D01*
X187132419Y-88877544D02*
X187132419Y-89020401D01*
X186465752Y-88401353D02*
X186465752Y-88020401D01*
X186132419Y-88258496D02*
X186989561Y-88258496D01*
X186989561Y-88258496D02*
X187084800Y-88210877D01*
X187084800Y-88210877D02*
X187132419Y-88115639D01*
X187132419Y-88115639D02*
X187132419Y-88020401D01*
X187132419Y-87687067D02*
X186132419Y-87687067D01*
X187132419Y-87258496D02*
X186608609Y-87258496D01*
X186608609Y-87258496D02*
X186513371Y-87306115D01*
X186513371Y-87306115D02*
X186465752Y-87401353D01*
X186465752Y-87401353D02*
X186465752Y-87544210D01*
X186465752Y-87544210D02*
X186513371Y-87639448D01*
X186513371Y-87639448D02*
X186560990Y-87687067D01*
X187084800Y-86401353D02*
X187132419Y-86496591D01*
X187132419Y-86496591D02*
X187132419Y-86687067D01*
X187132419Y-86687067D02*
X187084800Y-86782305D01*
X187084800Y-86782305D02*
X186989561Y-86829924D01*
X186989561Y-86829924D02*
X186608609Y-86829924D01*
X186608609Y-86829924D02*
X186513371Y-86782305D01*
X186513371Y-86782305D02*
X186465752Y-86687067D01*
X186465752Y-86687067D02*
X186465752Y-86496591D01*
X186465752Y-86496591D02*
X186513371Y-86401353D01*
X186513371Y-86401353D02*
X186608609Y-86353734D01*
X186608609Y-86353734D02*
X186703847Y-86353734D01*
X186703847Y-86353734D02*
X186799085Y-86829924D01*
X187132419Y-85925162D02*
X186465752Y-85925162D01*
X186656228Y-85925162D02*
X186560990Y-85877543D01*
X186560990Y-85877543D02*
X186513371Y-85829924D01*
X186513371Y-85829924D02*
X186465752Y-85734686D01*
X186465752Y-85734686D02*
X186465752Y-85639448D01*
X187132419Y-85306114D02*
X186132419Y-85306114D01*
X186513371Y-85306114D02*
X186465752Y-85210876D01*
X186465752Y-85210876D02*
X186465752Y-85020400D01*
X186465752Y-85020400D02*
X186513371Y-84925162D01*
X186513371Y-84925162D02*
X186560990Y-84877543D01*
X186560990Y-84877543D02*
X186656228Y-84829924D01*
X186656228Y-84829924D02*
X186941942Y-84829924D01*
X186941942Y-84829924D02*
X187037180Y-84877543D01*
X187037180Y-84877543D02*
X187084800Y-84925162D01*
X187084800Y-84925162D02*
X187132419Y-85020400D01*
X187132419Y-85020400D02*
X187132419Y-85210876D01*
X187132419Y-85210876D02*
X187084800Y-85306114D01*
X187132419Y-84258495D02*
X187084800Y-84353733D01*
X187084800Y-84353733D02*
X187037180Y-84401352D01*
X187037180Y-84401352D02*
X186941942Y-84448971D01*
X186941942Y-84448971D02*
X186656228Y-84448971D01*
X186656228Y-84448971D02*
X186560990Y-84401352D01*
X186560990Y-84401352D02*
X186513371Y-84353733D01*
X186513371Y-84353733D02*
X186465752Y-84258495D01*
X186465752Y-84258495D02*
X186465752Y-84115638D01*
X186465752Y-84115638D02*
X186513371Y-84020400D01*
X186513371Y-84020400D02*
X186560990Y-83972781D01*
X186560990Y-83972781D02*
X186656228Y-83925162D01*
X186656228Y-83925162D02*
X186941942Y-83925162D01*
X186941942Y-83925162D02*
X187037180Y-83972781D01*
X187037180Y-83972781D02*
X187084800Y-84020400D01*
X187084800Y-84020400D02*
X187132419Y-84115638D01*
X187132419Y-84115638D02*
X187132419Y-84258495D01*
X187132419Y-83068019D02*
X186608609Y-83068019D01*
X186608609Y-83068019D02*
X186513371Y-83115638D01*
X186513371Y-83115638D02*
X186465752Y-83210876D01*
X186465752Y-83210876D02*
X186465752Y-83401352D01*
X186465752Y-83401352D02*
X186513371Y-83496590D01*
X187084800Y-83068019D02*
X187132419Y-83163257D01*
X187132419Y-83163257D02*
X187132419Y-83401352D01*
X187132419Y-83401352D02*
X187084800Y-83496590D01*
X187084800Y-83496590D02*
X186989561Y-83544209D01*
X186989561Y-83544209D02*
X186894323Y-83544209D01*
X186894323Y-83544209D02*
X186799085Y-83496590D01*
X186799085Y-83496590D02*
X186751466Y-83401352D01*
X186751466Y-83401352D02*
X186751466Y-83163257D01*
X186751466Y-83163257D02*
X186703847Y-83068019D01*
X187132419Y-82591828D02*
X186465752Y-82591828D01*
X186656228Y-82591828D02*
X186560990Y-82544209D01*
X186560990Y-82544209D02*
X186513371Y-82496590D01*
X186513371Y-82496590D02*
X186465752Y-82401352D01*
X186465752Y-82401352D02*
X186465752Y-82306114D01*
X187132419Y-81544209D02*
X186132419Y-81544209D01*
X187084800Y-81544209D02*
X187132419Y-81639447D01*
X187132419Y-81639447D02*
X187132419Y-81829923D01*
X187132419Y-81829923D02*
X187084800Y-81925161D01*
X187084800Y-81925161D02*
X187037180Y-81972780D01*
X187037180Y-81972780D02*
X186941942Y-82020399D01*
X186941942Y-82020399D02*
X186656228Y-82020399D01*
X186656228Y-82020399D02*
X186560990Y-81972780D01*
X186560990Y-81972780D02*
X186513371Y-81925161D01*
X186513371Y-81925161D02*
X186465752Y-81829923D01*
X186465752Y-81829923D02*
X186465752Y-81639447D01*
X186465752Y-81639447D02*
X186513371Y-81544209D01*
X187084800Y-80353732D02*
X187132419Y-80210875D01*
X187132419Y-80210875D02*
X187132419Y-79972780D01*
X187132419Y-79972780D02*
X187084800Y-79877542D01*
X187084800Y-79877542D02*
X187037180Y-79829923D01*
X187037180Y-79829923D02*
X186941942Y-79782304D01*
X186941942Y-79782304D02*
X186846704Y-79782304D01*
X186846704Y-79782304D02*
X186751466Y-79829923D01*
X186751466Y-79829923D02*
X186703847Y-79877542D01*
X186703847Y-79877542D02*
X186656228Y-79972780D01*
X186656228Y-79972780D02*
X186608609Y-80163256D01*
X186608609Y-80163256D02*
X186560990Y-80258494D01*
X186560990Y-80258494D02*
X186513371Y-80306113D01*
X186513371Y-80306113D02*
X186418133Y-80353732D01*
X186418133Y-80353732D02*
X186322895Y-80353732D01*
X186322895Y-80353732D02*
X186227657Y-80306113D01*
X186227657Y-80306113D02*
X186180038Y-80258494D01*
X186180038Y-80258494D02*
X186132419Y-80163256D01*
X186132419Y-80163256D02*
X186132419Y-79925161D01*
X186132419Y-79925161D02*
X186180038Y-79782304D01*
X187132419Y-79353732D02*
X186465752Y-79353732D01*
X186132419Y-79353732D02*
X186180038Y-79401351D01*
X186180038Y-79401351D02*
X186227657Y-79353732D01*
X186227657Y-79353732D02*
X186180038Y-79306113D01*
X186180038Y-79306113D02*
X186132419Y-79353732D01*
X186132419Y-79353732D02*
X186227657Y-79353732D01*
X187132419Y-78448971D02*
X186132419Y-78448971D01*
X187084800Y-78448971D02*
X187132419Y-78544209D01*
X187132419Y-78544209D02*
X187132419Y-78734685D01*
X187132419Y-78734685D02*
X187084800Y-78829923D01*
X187084800Y-78829923D02*
X187037180Y-78877542D01*
X187037180Y-78877542D02*
X186941942Y-78925161D01*
X186941942Y-78925161D02*
X186656228Y-78925161D01*
X186656228Y-78925161D02*
X186560990Y-78877542D01*
X186560990Y-78877542D02*
X186513371Y-78829923D01*
X186513371Y-78829923D02*
X186465752Y-78734685D01*
X186465752Y-78734685D02*
X186465752Y-78544209D01*
X186465752Y-78544209D02*
X186513371Y-78448971D01*
X187084800Y-77591828D02*
X187132419Y-77687066D01*
X187132419Y-77687066D02*
X187132419Y-77877542D01*
X187132419Y-77877542D02*
X187084800Y-77972780D01*
X187084800Y-77972780D02*
X186989561Y-78020399D01*
X186989561Y-78020399D02*
X186608609Y-78020399D01*
X186608609Y-78020399D02*
X186513371Y-77972780D01*
X186513371Y-77972780D02*
X186465752Y-77877542D01*
X186465752Y-77877542D02*
X186465752Y-77687066D01*
X186465752Y-77687066D02*
X186513371Y-77591828D01*
X186513371Y-77591828D02*
X186608609Y-77544209D01*
X186608609Y-77544209D02*
X186703847Y-77544209D01*
X186703847Y-77544209D02*
X186799085Y-78020399D01*
X135407342Y-95250001D02*
X135407342Y-94773811D01*
X135693057Y-95345239D02*
X134693057Y-95011906D01*
X134693057Y-95011906D02*
X135693057Y-94678573D01*
X135645438Y-94392858D02*
X135693057Y-94250001D01*
X135693057Y-94250001D02*
X135693057Y-94011906D01*
X135693057Y-94011906D02*
X135645438Y-93916668D01*
X135645438Y-93916668D02*
X135597818Y-93869049D01*
X135597818Y-93869049D02*
X135502580Y-93821430D01*
X135502580Y-93821430D02*
X135407342Y-93821430D01*
X135407342Y-93821430D02*
X135312104Y-93869049D01*
X135312104Y-93869049D02*
X135264485Y-93916668D01*
X135264485Y-93916668D02*
X135216866Y-94011906D01*
X135216866Y-94011906D02*
X135169247Y-94202382D01*
X135169247Y-94202382D02*
X135121628Y-94297620D01*
X135121628Y-94297620D02*
X135074009Y-94345239D01*
X135074009Y-94345239D02*
X134978771Y-94392858D01*
X134978771Y-94392858D02*
X134883533Y-94392858D01*
X134883533Y-94392858D02*
X134788295Y-94345239D01*
X134788295Y-94345239D02*
X134740676Y-94297620D01*
X134740676Y-94297620D02*
X134693057Y-94202382D01*
X134693057Y-94202382D02*
X134693057Y-93964287D01*
X134693057Y-93964287D02*
X134740676Y-93821430D01*
X135693057Y-93392858D02*
X134693057Y-93392858D01*
X134693057Y-92488097D02*
X134693057Y-92678573D01*
X134693057Y-92678573D02*
X134740676Y-92773811D01*
X134740676Y-92773811D02*
X134788295Y-92821430D01*
X134788295Y-92821430D02*
X134931152Y-92916668D01*
X134931152Y-92916668D02*
X135121628Y-92964287D01*
X135121628Y-92964287D02*
X135502580Y-92964287D01*
X135502580Y-92964287D02*
X135597818Y-92916668D01*
X135597818Y-92916668D02*
X135645438Y-92869049D01*
X135645438Y-92869049D02*
X135693057Y-92773811D01*
X135693057Y-92773811D02*
X135693057Y-92583335D01*
X135693057Y-92583335D02*
X135645438Y-92488097D01*
X135645438Y-92488097D02*
X135597818Y-92440478D01*
X135597818Y-92440478D02*
X135502580Y-92392859D01*
X135502580Y-92392859D02*
X135264485Y-92392859D01*
X135264485Y-92392859D02*
X135169247Y-92440478D01*
X135169247Y-92440478D02*
X135121628Y-92488097D01*
X135121628Y-92488097D02*
X135074009Y-92583335D01*
X135074009Y-92583335D02*
X135074009Y-92773811D01*
X135074009Y-92773811D02*
X135121628Y-92869049D01*
X135121628Y-92869049D02*
X135169247Y-92916668D01*
X135169247Y-92916668D02*
X135264485Y-92964287D01*
X134788295Y-92011906D02*
X134740676Y-91964287D01*
X134740676Y-91964287D02*
X134693057Y-91869049D01*
X134693057Y-91869049D02*
X134693057Y-91630954D01*
X134693057Y-91630954D02*
X134740676Y-91535716D01*
X134740676Y-91535716D02*
X134788295Y-91488097D01*
X134788295Y-91488097D02*
X134883533Y-91440478D01*
X134883533Y-91440478D02*
X134978771Y-91440478D01*
X134978771Y-91440478D02*
X135121628Y-91488097D01*
X135121628Y-91488097D02*
X135693057Y-92059525D01*
X135693057Y-92059525D02*
X135693057Y-91440478D01*
X134693057Y-90821430D02*
X134693057Y-90726192D01*
X134693057Y-90726192D02*
X134740676Y-90630954D01*
X134740676Y-90630954D02*
X134788295Y-90583335D01*
X134788295Y-90583335D02*
X134883533Y-90535716D01*
X134883533Y-90535716D02*
X135074009Y-90488097D01*
X135074009Y-90488097D02*
X135312104Y-90488097D01*
X135312104Y-90488097D02*
X135502580Y-90535716D01*
X135502580Y-90535716D02*
X135597818Y-90583335D01*
X135597818Y-90583335D02*
X135645438Y-90630954D01*
X135645438Y-90630954D02*
X135693057Y-90726192D01*
X135693057Y-90726192D02*
X135693057Y-90821430D01*
X135693057Y-90821430D02*
X135645438Y-90916668D01*
X135645438Y-90916668D02*
X135597818Y-90964287D01*
X135597818Y-90964287D02*
X135502580Y-91011906D01*
X135502580Y-91011906D02*
X135312104Y-91059525D01*
X135312104Y-91059525D02*
X135074009Y-91059525D01*
X135074009Y-91059525D02*
X134883533Y-91011906D01*
X134883533Y-91011906D02*
X134788295Y-90964287D01*
X134788295Y-90964287D02*
X134740676Y-90916668D01*
X134740676Y-90916668D02*
X134693057Y-90821430D01*
X134693057Y-89869049D02*
X134693057Y-89773811D01*
X134693057Y-89773811D02*
X134740676Y-89678573D01*
X134740676Y-89678573D02*
X134788295Y-89630954D01*
X134788295Y-89630954D02*
X134883533Y-89583335D01*
X134883533Y-89583335D02*
X135074009Y-89535716D01*
X135074009Y-89535716D02*
X135312104Y-89535716D01*
X135312104Y-89535716D02*
X135502580Y-89583335D01*
X135502580Y-89583335D02*
X135597818Y-89630954D01*
X135597818Y-89630954D02*
X135645438Y-89678573D01*
X135645438Y-89678573D02*
X135693057Y-89773811D01*
X135693057Y-89773811D02*
X135693057Y-89869049D01*
X135693057Y-89869049D02*
X135645438Y-89964287D01*
X135645438Y-89964287D02*
X135597818Y-90011906D01*
X135597818Y-90011906D02*
X135502580Y-90059525D01*
X135502580Y-90059525D02*
X135312104Y-90107144D01*
X135312104Y-90107144D02*
X135074009Y-90107144D01*
X135074009Y-90107144D02*
X134883533Y-90059525D01*
X134883533Y-90059525D02*
X134788295Y-90011906D01*
X134788295Y-90011906D02*
X134740676Y-89964287D01*
X134740676Y-89964287D02*
X134693057Y-89869049D01*
X135169247Y-88011906D02*
X135169247Y-88345239D01*
X135693057Y-88345239D02*
X134693057Y-88345239D01*
X134693057Y-88345239D02*
X134693057Y-87869049D01*
X135693057Y-87345239D02*
X135645438Y-87440477D01*
X135645438Y-87440477D02*
X135550199Y-87488096D01*
X135550199Y-87488096D02*
X134693057Y-87488096D01*
X135645438Y-86583334D02*
X135693057Y-86678572D01*
X135693057Y-86678572D02*
X135693057Y-86869048D01*
X135693057Y-86869048D02*
X135645438Y-86964286D01*
X135645438Y-86964286D02*
X135550199Y-87011905D01*
X135550199Y-87011905D02*
X135169247Y-87011905D01*
X135169247Y-87011905D02*
X135074009Y-86964286D01*
X135074009Y-86964286D02*
X135026390Y-86869048D01*
X135026390Y-86869048D02*
X135026390Y-86678572D01*
X135026390Y-86678572D02*
X135074009Y-86583334D01*
X135074009Y-86583334D02*
X135169247Y-86535715D01*
X135169247Y-86535715D02*
X135264485Y-86535715D01*
X135264485Y-86535715D02*
X135359723Y-87011905D01*
X135693057Y-86202381D02*
X135026390Y-85678572D01*
X135026390Y-86202381D02*
X135693057Y-85678572D01*
X135597818Y-83964286D02*
X135645438Y-84011905D01*
X135645438Y-84011905D02*
X135693057Y-84154762D01*
X135693057Y-84154762D02*
X135693057Y-84250000D01*
X135693057Y-84250000D02*
X135645438Y-84392857D01*
X135645438Y-84392857D02*
X135550199Y-84488095D01*
X135550199Y-84488095D02*
X135454961Y-84535714D01*
X135454961Y-84535714D02*
X135264485Y-84583333D01*
X135264485Y-84583333D02*
X135121628Y-84583333D01*
X135121628Y-84583333D02*
X134931152Y-84535714D01*
X134931152Y-84535714D02*
X134835914Y-84488095D01*
X134835914Y-84488095D02*
X134740676Y-84392857D01*
X134740676Y-84392857D02*
X134693057Y-84250000D01*
X134693057Y-84250000D02*
X134693057Y-84154762D01*
X134693057Y-84154762D02*
X134740676Y-84011905D01*
X134740676Y-84011905D02*
X134788295Y-83964286D01*
X135693057Y-83107143D02*
X135169247Y-83107143D01*
X135169247Y-83107143D02*
X135074009Y-83154762D01*
X135074009Y-83154762D02*
X135026390Y-83250000D01*
X135026390Y-83250000D02*
X135026390Y-83440476D01*
X135026390Y-83440476D02*
X135074009Y-83535714D01*
X135645438Y-83107143D02*
X135693057Y-83202381D01*
X135693057Y-83202381D02*
X135693057Y-83440476D01*
X135693057Y-83440476D02*
X135645438Y-83535714D01*
X135645438Y-83535714D02*
X135550199Y-83583333D01*
X135550199Y-83583333D02*
X135454961Y-83583333D01*
X135454961Y-83583333D02*
X135359723Y-83535714D01*
X135359723Y-83535714D02*
X135312104Y-83440476D01*
X135312104Y-83440476D02*
X135312104Y-83202381D01*
X135312104Y-83202381D02*
X135264485Y-83107143D01*
X135693057Y-82630952D02*
X134693057Y-82630952D01*
X135074009Y-82630952D02*
X135026390Y-82535714D01*
X135026390Y-82535714D02*
X135026390Y-82345238D01*
X135026390Y-82345238D02*
X135074009Y-82250000D01*
X135074009Y-82250000D02*
X135121628Y-82202381D01*
X135121628Y-82202381D02*
X135216866Y-82154762D01*
X135216866Y-82154762D02*
X135502580Y-82154762D01*
X135502580Y-82154762D02*
X135597818Y-82202381D01*
X135597818Y-82202381D02*
X135645438Y-82250000D01*
X135645438Y-82250000D02*
X135693057Y-82345238D01*
X135693057Y-82345238D02*
X135693057Y-82535714D01*
X135693057Y-82535714D02*
X135645438Y-82630952D01*
X135693057Y-81583333D02*
X135645438Y-81678571D01*
X135645438Y-81678571D02*
X135550199Y-81726190D01*
X135550199Y-81726190D02*
X134693057Y-81726190D01*
X135645438Y-80821428D02*
X135693057Y-80916666D01*
X135693057Y-80916666D02*
X135693057Y-81107142D01*
X135693057Y-81107142D02*
X135645438Y-81202380D01*
X135645438Y-81202380D02*
X135550199Y-81249999D01*
X135550199Y-81249999D02*
X135169247Y-81249999D01*
X135169247Y-81249999D02*
X135074009Y-81202380D01*
X135074009Y-81202380D02*
X135026390Y-81107142D01*
X135026390Y-81107142D02*
X135026390Y-80916666D01*
X135026390Y-80916666D02*
X135074009Y-80821428D01*
X135074009Y-80821428D02*
X135169247Y-80773809D01*
X135169247Y-80773809D02*
X135264485Y-80773809D01*
X135264485Y-80773809D02*
X135359723Y-81249999D01*
X136074009Y-79297618D02*
X136026390Y-79345237D01*
X136026390Y-79345237D02*
X135883533Y-79440475D01*
X135883533Y-79440475D02*
X135788295Y-79488094D01*
X135788295Y-79488094D02*
X135645438Y-79535713D01*
X135645438Y-79535713D02*
X135407342Y-79583332D01*
X135407342Y-79583332D02*
X135216866Y-79583332D01*
X135216866Y-79583332D02*
X134978771Y-79535713D01*
X134978771Y-79535713D02*
X134835914Y-79488094D01*
X134835914Y-79488094D02*
X134740676Y-79440475D01*
X134740676Y-79440475D02*
X134597818Y-79345237D01*
X134597818Y-79345237D02*
X134550199Y-79297618D01*
X135026390Y-78916665D02*
X135693057Y-78916665D01*
X135121628Y-78916665D02*
X135074009Y-78869046D01*
X135074009Y-78869046D02*
X135026390Y-78773808D01*
X135026390Y-78773808D02*
X135026390Y-78630951D01*
X135026390Y-78630951D02*
X135074009Y-78535713D01*
X135074009Y-78535713D02*
X135169247Y-78488094D01*
X135169247Y-78488094D02*
X135693057Y-78488094D01*
X135693057Y-77869046D02*
X135645438Y-77964284D01*
X135645438Y-77964284D02*
X135597818Y-78011903D01*
X135597818Y-78011903D02*
X135502580Y-78059522D01*
X135502580Y-78059522D02*
X135216866Y-78059522D01*
X135216866Y-78059522D02*
X135121628Y-78011903D01*
X135121628Y-78011903D02*
X135074009Y-77964284D01*
X135074009Y-77964284D02*
X135026390Y-77869046D01*
X135026390Y-77869046D02*
X135026390Y-77726189D01*
X135026390Y-77726189D02*
X135074009Y-77630951D01*
X135074009Y-77630951D02*
X135121628Y-77583332D01*
X135121628Y-77583332D02*
X135216866Y-77535713D01*
X135216866Y-77535713D02*
X135502580Y-77535713D01*
X135502580Y-77535713D02*
X135597818Y-77583332D01*
X135597818Y-77583332D02*
X135645438Y-77630951D01*
X135645438Y-77630951D02*
X135693057Y-77726189D01*
X135693057Y-77726189D02*
X135693057Y-77869046D01*
X135026390Y-77107141D02*
X135693057Y-77107141D01*
X135121628Y-77107141D02*
X135074009Y-77059522D01*
X135074009Y-77059522D02*
X135026390Y-76964284D01*
X135026390Y-76964284D02*
X135026390Y-76821427D01*
X135026390Y-76821427D02*
X135074009Y-76726189D01*
X135074009Y-76726189D02*
X135169247Y-76678570D01*
X135169247Y-76678570D02*
X135693057Y-76678570D01*
X135312104Y-76202379D02*
X135312104Y-75440475D01*
X135026390Y-75107141D02*
X135026390Y-74726189D01*
X135693057Y-74964284D02*
X134835914Y-74964284D01*
X134835914Y-74964284D02*
X134740676Y-74916665D01*
X134740676Y-74916665D02*
X134693057Y-74821427D01*
X134693057Y-74821427D02*
X134693057Y-74726189D01*
X135693057Y-74249998D02*
X135645438Y-74345236D01*
X135645438Y-74345236D02*
X135550199Y-74392855D01*
X135550199Y-74392855D02*
X134693057Y-74392855D01*
X135693057Y-73869045D02*
X135026390Y-73869045D01*
X134693057Y-73869045D02*
X134740676Y-73916664D01*
X134740676Y-73916664D02*
X134788295Y-73869045D01*
X134788295Y-73869045D02*
X134740676Y-73821426D01*
X134740676Y-73821426D02*
X134693057Y-73869045D01*
X134693057Y-73869045D02*
X134788295Y-73869045D01*
X135026390Y-73392855D02*
X136026390Y-73392855D01*
X135074009Y-73392855D02*
X135026390Y-73297617D01*
X135026390Y-73297617D02*
X135026390Y-73107141D01*
X135026390Y-73107141D02*
X135074009Y-73011903D01*
X135074009Y-73011903D02*
X135121628Y-72964284D01*
X135121628Y-72964284D02*
X135216866Y-72916665D01*
X135216866Y-72916665D02*
X135502580Y-72916665D01*
X135502580Y-72916665D02*
X135597818Y-72964284D01*
X135597818Y-72964284D02*
X135645438Y-73011903D01*
X135645438Y-73011903D02*
X135693057Y-73107141D01*
X135693057Y-73107141D02*
X135693057Y-73297617D01*
X135693057Y-73297617D02*
X135645438Y-73392855D01*
X136074009Y-72583331D02*
X136026390Y-72535712D01*
X136026390Y-72535712D02*
X135883533Y-72440474D01*
X135883533Y-72440474D02*
X135788295Y-72392855D01*
X135788295Y-72392855D02*
X135645438Y-72345236D01*
X135645438Y-72345236D02*
X135407342Y-72297617D01*
X135407342Y-72297617D02*
X135216866Y-72297617D01*
X135216866Y-72297617D02*
X134978771Y-72345236D01*
X134978771Y-72345236D02*
X134835914Y-72392855D01*
X134835914Y-72392855D02*
X134740676Y-72440474D01*
X134740676Y-72440474D02*
X134597818Y-72535712D01*
X134597818Y-72535712D02*
X134550199Y-72583331D01*
X136779191Y-88797619D02*
X136826810Y-88654762D01*
X136826810Y-88654762D02*
X136874429Y-88607143D01*
X136874429Y-88607143D02*
X136969667Y-88559524D01*
X136969667Y-88559524D02*
X137112524Y-88559524D01*
X137112524Y-88559524D02*
X137207762Y-88607143D01*
X137207762Y-88607143D02*
X137255382Y-88654762D01*
X137255382Y-88654762D02*
X137303001Y-88750000D01*
X137303001Y-88750000D02*
X137303001Y-89130952D01*
X137303001Y-89130952D02*
X136303001Y-89130952D01*
X136303001Y-89130952D02*
X136303001Y-88797619D01*
X136303001Y-88797619D02*
X136350620Y-88702381D01*
X136350620Y-88702381D02*
X136398239Y-88654762D01*
X136398239Y-88654762D02*
X136493477Y-88607143D01*
X136493477Y-88607143D02*
X136588715Y-88607143D01*
X136588715Y-88607143D02*
X136683953Y-88654762D01*
X136683953Y-88654762D02*
X136731572Y-88702381D01*
X136731572Y-88702381D02*
X136779191Y-88797619D01*
X136779191Y-88797619D02*
X136779191Y-89130952D01*
X137303001Y-87988095D02*
X137255382Y-88083333D01*
X137255382Y-88083333D02*
X137160143Y-88130952D01*
X137160143Y-88130952D02*
X136303001Y-88130952D01*
X137303001Y-87178571D02*
X136779191Y-87178571D01*
X136779191Y-87178571D02*
X136683953Y-87226190D01*
X136683953Y-87226190D02*
X136636334Y-87321428D01*
X136636334Y-87321428D02*
X136636334Y-87511904D01*
X136636334Y-87511904D02*
X136683953Y-87607142D01*
X137255382Y-87178571D02*
X137303001Y-87273809D01*
X137303001Y-87273809D02*
X137303001Y-87511904D01*
X137303001Y-87511904D02*
X137255382Y-87607142D01*
X137255382Y-87607142D02*
X137160143Y-87654761D01*
X137160143Y-87654761D02*
X137064905Y-87654761D01*
X137064905Y-87654761D02*
X136969667Y-87607142D01*
X136969667Y-87607142D02*
X136922048Y-87511904D01*
X136922048Y-87511904D02*
X136922048Y-87273809D01*
X136922048Y-87273809D02*
X136874429Y-87178571D01*
X137303001Y-86702380D02*
X136636334Y-86702380D01*
X136303001Y-86702380D02*
X136350620Y-86749999D01*
X136350620Y-86749999D02*
X136398239Y-86702380D01*
X136398239Y-86702380D02*
X136350620Y-86654761D01*
X136350620Y-86654761D02*
X136303001Y-86702380D01*
X136303001Y-86702380D02*
X136398239Y-86702380D01*
X137303001Y-86226190D02*
X136636334Y-86226190D01*
X136826810Y-86226190D02*
X136731572Y-86178571D01*
X136731572Y-86178571D02*
X136683953Y-86130952D01*
X136683953Y-86130952D02*
X136636334Y-86035714D01*
X136636334Y-86035714D02*
X136636334Y-85940476D01*
X136303001Y-84559523D02*
X137017286Y-84559523D01*
X137017286Y-84559523D02*
X137160143Y-84607142D01*
X137160143Y-84607142D02*
X137255382Y-84702380D01*
X137255382Y-84702380D02*
X137303001Y-84845237D01*
X137303001Y-84845237D02*
X137303001Y-84940475D01*
X137303001Y-83654761D02*
X136779191Y-83654761D01*
X136779191Y-83654761D02*
X136683953Y-83702380D01*
X136683953Y-83702380D02*
X136636334Y-83797618D01*
X136636334Y-83797618D02*
X136636334Y-83988094D01*
X136636334Y-83988094D02*
X136683953Y-84083332D01*
X137255382Y-83654761D02*
X137303001Y-83749999D01*
X137303001Y-83749999D02*
X137303001Y-83988094D01*
X137303001Y-83988094D02*
X137255382Y-84083332D01*
X137255382Y-84083332D02*
X137160143Y-84130951D01*
X137160143Y-84130951D02*
X137064905Y-84130951D01*
X137064905Y-84130951D02*
X136969667Y-84083332D01*
X136969667Y-84083332D02*
X136922048Y-83988094D01*
X136922048Y-83988094D02*
X136922048Y-83749999D01*
X136922048Y-83749999D02*
X136874429Y-83654761D01*
X137303001Y-83178570D02*
X136636334Y-83178570D01*
X136731572Y-83178570D02*
X136683953Y-83130951D01*
X136683953Y-83130951D02*
X136636334Y-83035713D01*
X136636334Y-83035713D02*
X136636334Y-82892856D01*
X136636334Y-82892856D02*
X136683953Y-82797618D01*
X136683953Y-82797618D02*
X136779191Y-82749999D01*
X136779191Y-82749999D02*
X137303001Y-82749999D01*
X136779191Y-82749999D02*
X136683953Y-82702380D01*
X136683953Y-82702380D02*
X136636334Y-82607142D01*
X136636334Y-82607142D02*
X136636334Y-82464285D01*
X136636334Y-82464285D02*
X136683953Y-82369046D01*
X136683953Y-82369046D02*
X136779191Y-82321427D01*
X136779191Y-82321427D02*
X137303001Y-82321427D01*
X137303001Y-81845237D02*
X136636334Y-81845237D01*
X136303001Y-81845237D02*
X136350620Y-81892856D01*
X136350620Y-81892856D02*
X136398239Y-81845237D01*
X136398239Y-81845237D02*
X136350620Y-81797618D01*
X136350620Y-81797618D02*
X136303001Y-81845237D01*
X136303001Y-81845237D02*
X136398239Y-81845237D01*
X137255382Y-80988095D02*
X137303001Y-81083333D01*
X137303001Y-81083333D02*
X137303001Y-81273809D01*
X137303001Y-81273809D02*
X137255382Y-81369047D01*
X137255382Y-81369047D02*
X137160143Y-81416666D01*
X137160143Y-81416666D02*
X136779191Y-81416666D01*
X136779191Y-81416666D02*
X136683953Y-81369047D01*
X136683953Y-81369047D02*
X136636334Y-81273809D01*
X136636334Y-81273809D02*
X136636334Y-81083333D01*
X136636334Y-81083333D02*
X136683953Y-80988095D01*
X136683953Y-80988095D02*
X136779191Y-80940476D01*
X136779191Y-80940476D02*
X136874429Y-80940476D01*
X136874429Y-80940476D02*
X136969667Y-81416666D01*
X137255382Y-80559523D02*
X137303001Y-80464285D01*
X137303001Y-80464285D02*
X137303001Y-80273809D01*
X137303001Y-80273809D02*
X137255382Y-80178571D01*
X137255382Y-80178571D02*
X137160143Y-80130952D01*
X137160143Y-80130952D02*
X137112524Y-80130952D01*
X137112524Y-80130952D02*
X137017286Y-80178571D01*
X137017286Y-80178571D02*
X136969667Y-80273809D01*
X136969667Y-80273809D02*
X136969667Y-80416666D01*
X136969667Y-80416666D02*
X136922048Y-80511904D01*
X136922048Y-80511904D02*
X136826810Y-80559523D01*
X136826810Y-80559523D02*
X136779191Y-80559523D01*
X136779191Y-80559523D02*
X136683953Y-80511904D01*
X136683953Y-80511904D02*
X136636334Y-80416666D01*
X136636334Y-80416666D02*
X136636334Y-80273809D01*
X136636334Y-80273809D02*
X136683953Y-80178571D01*
X137303001Y-79559523D02*
X137255382Y-79654761D01*
X137255382Y-79654761D02*
X137207762Y-79702380D01*
X137207762Y-79702380D02*
X137112524Y-79749999D01*
X137112524Y-79749999D02*
X136826810Y-79749999D01*
X136826810Y-79749999D02*
X136731572Y-79702380D01*
X136731572Y-79702380D02*
X136683953Y-79654761D01*
X136683953Y-79654761D02*
X136636334Y-79559523D01*
X136636334Y-79559523D02*
X136636334Y-79416666D01*
X136636334Y-79416666D02*
X136683953Y-79321428D01*
X136683953Y-79321428D02*
X136731572Y-79273809D01*
X136731572Y-79273809D02*
X136826810Y-79226190D01*
X136826810Y-79226190D02*
X137112524Y-79226190D01*
X137112524Y-79226190D02*
X137207762Y-79273809D01*
X137207762Y-79273809D02*
X137255382Y-79321428D01*
X137255382Y-79321428D02*
X137303001Y-79416666D01*
X137303001Y-79416666D02*
X137303001Y-79559523D01*
X136636334Y-78797618D02*
X137303001Y-78797618D01*
X136731572Y-78797618D02*
X136683953Y-78749999D01*
X136683953Y-78749999D02*
X136636334Y-78654761D01*
X136636334Y-78654761D02*
X136636334Y-78511904D01*
X136636334Y-78511904D02*
X136683953Y-78416666D01*
X136683953Y-78416666D02*
X136779191Y-78369047D01*
X136779191Y-78369047D02*
X137303001Y-78369047D01*
X137912945Y-90511904D02*
X138722468Y-90511904D01*
X138722468Y-90511904D02*
X138817706Y-90464285D01*
X138817706Y-90464285D02*
X138865326Y-90416666D01*
X138865326Y-90416666D02*
X138912945Y-90321428D01*
X138912945Y-90321428D02*
X138912945Y-90130952D01*
X138912945Y-90130952D02*
X138865326Y-90035714D01*
X138865326Y-90035714D02*
X138817706Y-89988095D01*
X138817706Y-89988095D02*
X138722468Y-89940476D01*
X138722468Y-89940476D02*
X137912945Y-89940476D01*
X137912945Y-89559523D02*
X138912945Y-89321428D01*
X138912945Y-89321428D02*
X138198659Y-89130952D01*
X138198659Y-89130952D02*
X138912945Y-88940476D01*
X138912945Y-88940476D02*
X137912945Y-88702381D01*
X138912945Y-88321428D02*
X138246278Y-88321428D01*
X137912945Y-88321428D02*
X137960564Y-88369047D01*
X137960564Y-88369047D02*
X138008183Y-88321428D01*
X138008183Y-88321428D02*
X137960564Y-88273809D01*
X137960564Y-88273809D02*
X137912945Y-88321428D01*
X137912945Y-88321428D02*
X138008183Y-88321428D01*
X138246278Y-87845238D02*
X138912945Y-87845238D01*
X138341516Y-87845238D02*
X138293897Y-87797619D01*
X138293897Y-87797619D02*
X138246278Y-87702381D01*
X138246278Y-87702381D02*
X138246278Y-87559524D01*
X138246278Y-87559524D02*
X138293897Y-87464286D01*
X138293897Y-87464286D02*
X138389135Y-87416667D01*
X138389135Y-87416667D02*
X138912945Y-87416667D01*
X138246278Y-86940476D02*
X138912945Y-86940476D01*
X138341516Y-86940476D02*
X138293897Y-86892857D01*
X138293897Y-86892857D02*
X138246278Y-86797619D01*
X138246278Y-86797619D02*
X138246278Y-86654762D01*
X138246278Y-86654762D02*
X138293897Y-86559524D01*
X138293897Y-86559524D02*
X138389135Y-86511905D01*
X138389135Y-86511905D02*
X138912945Y-86511905D01*
X138912945Y-86035714D02*
X138246278Y-86035714D01*
X137912945Y-86035714D02*
X137960564Y-86083333D01*
X137960564Y-86083333D02*
X138008183Y-86035714D01*
X138008183Y-86035714D02*
X137960564Y-85988095D01*
X137960564Y-85988095D02*
X137912945Y-86035714D01*
X137912945Y-86035714D02*
X138008183Y-86035714D01*
X138246278Y-85559524D02*
X139246278Y-85559524D01*
X138293897Y-85559524D02*
X138246278Y-85464286D01*
X138246278Y-85464286D02*
X138246278Y-85273810D01*
X138246278Y-85273810D02*
X138293897Y-85178572D01*
X138293897Y-85178572D02*
X138341516Y-85130953D01*
X138341516Y-85130953D02*
X138436754Y-85083334D01*
X138436754Y-85083334D02*
X138722468Y-85083334D01*
X138722468Y-85083334D02*
X138817706Y-85130953D01*
X138817706Y-85130953D02*
X138865326Y-85178572D01*
X138865326Y-85178572D02*
X138912945Y-85273810D01*
X138912945Y-85273810D02*
X138912945Y-85464286D01*
X138912945Y-85464286D02*
X138865326Y-85559524D01*
X138865326Y-84273810D02*
X138912945Y-84369048D01*
X138912945Y-84369048D02*
X138912945Y-84559524D01*
X138912945Y-84559524D02*
X138865326Y-84654762D01*
X138865326Y-84654762D02*
X138770087Y-84702381D01*
X138770087Y-84702381D02*
X138389135Y-84702381D01*
X138389135Y-84702381D02*
X138293897Y-84654762D01*
X138293897Y-84654762D02*
X138246278Y-84559524D01*
X138246278Y-84559524D02*
X138246278Y-84369048D01*
X138246278Y-84369048D02*
X138293897Y-84273810D01*
X138293897Y-84273810D02*
X138389135Y-84226191D01*
X138389135Y-84226191D02*
X138484373Y-84226191D01*
X138484373Y-84226191D02*
X138579611Y-84702381D01*
X138246278Y-83369048D02*
X139055802Y-83369048D01*
X139055802Y-83369048D02*
X139151040Y-83416667D01*
X139151040Y-83416667D02*
X139198659Y-83464286D01*
X139198659Y-83464286D02*
X139246278Y-83559524D01*
X139246278Y-83559524D02*
X139246278Y-83702381D01*
X139246278Y-83702381D02*
X139198659Y-83797619D01*
X138865326Y-83369048D02*
X138912945Y-83464286D01*
X138912945Y-83464286D02*
X138912945Y-83654762D01*
X138912945Y-83654762D02*
X138865326Y-83750000D01*
X138865326Y-83750000D02*
X138817706Y-83797619D01*
X138817706Y-83797619D02*
X138722468Y-83845238D01*
X138722468Y-83845238D02*
X138436754Y-83845238D01*
X138436754Y-83845238D02*
X138341516Y-83797619D01*
X138341516Y-83797619D02*
X138293897Y-83750000D01*
X138293897Y-83750000D02*
X138246278Y-83654762D01*
X138246278Y-83654762D02*
X138246278Y-83464286D01*
X138246278Y-83464286D02*
X138293897Y-83369048D01*
X138912945Y-82130952D02*
X137912945Y-82130952D01*
X137912945Y-82130952D02*
X137912945Y-81750000D01*
X137912945Y-81750000D02*
X137960564Y-81654762D01*
X137960564Y-81654762D02*
X138008183Y-81607143D01*
X138008183Y-81607143D02*
X138103421Y-81559524D01*
X138103421Y-81559524D02*
X138246278Y-81559524D01*
X138246278Y-81559524D02*
X138341516Y-81607143D01*
X138341516Y-81607143D02*
X138389135Y-81654762D01*
X138389135Y-81654762D02*
X138436754Y-81750000D01*
X138436754Y-81750000D02*
X138436754Y-82130952D01*
X138912945Y-81130952D02*
X137912945Y-81130952D01*
X138912945Y-80702381D02*
X138389135Y-80702381D01*
X138389135Y-80702381D02*
X138293897Y-80750000D01*
X138293897Y-80750000D02*
X138246278Y-80845238D01*
X138246278Y-80845238D02*
X138246278Y-80988095D01*
X138246278Y-80988095D02*
X138293897Y-81083333D01*
X138293897Y-81083333D02*
X138341516Y-81130952D01*
X138246278Y-80321428D02*
X138912945Y-80083333D01*
X138246278Y-79845238D02*
X138912945Y-80083333D01*
X138912945Y-80083333D02*
X139151040Y-80178571D01*
X139151040Y-80178571D02*
X139198659Y-80226190D01*
X139198659Y-80226190D02*
X139246278Y-80321428D01*
X138865326Y-79511904D02*
X138912945Y-79416666D01*
X138912945Y-79416666D02*
X138912945Y-79226190D01*
X138912945Y-79226190D02*
X138865326Y-79130952D01*
X138865326Y-79130952D02*
X138770087Y-79083333D01*
X138770087Y-79083333D02*
X138722468Y-79083333D01*
X138722468Y-79083333D02*
X138627230Y-79130952D01*
X138627230Y-79130952D02*
X138579611Y-79226190D01*
X138579611Y-79226190D02*
X138579611Y-79369047D01*
X138579611Y-79369047D02*
X138531992Y-79464285D01*
X138531992Y-79464285D02*
X138436754Y-79511904D01*
X138436754Y-79511904D02*
X138389135Y-79511904D01*
X138389135Y-79511904D02*
X138293897Y-79464285D01*
X138293897Y-79464285D02*
X138246278Y-79369047D01*
X138246278Y-79369047D02*
X138246278Y-79226190D01*
X138246278Y-79226190D02*
X138293897Y-79130952D01*
X138912945Y-78654761D02*
X138246278Y-78654761D01*
X137912945Y-78654761D02*
X137960564Y-78702380D01*
X137960564Y-78702380D02*
X138008183Y-78654761D01*
X138008183Y-78654761D02*
X137960564Y-78607142D01*
X137960564Y-78607142D02*
X137912945Y-78654761D01*
X137912945Y-78654761D02*
X138008183Y-78654761D01*
X138865326Y-77750000D02*
X138912945Y-77845238D01*
X138912945Y-77845238D02*
X138912945Y-78035714D01*
X138912945Y-78035714D02*
X138865326Y-78130952D01*
X138865326Y-78130952D02*
X138817706Y-78178571D01*
X138817706Y-78178571D02*
X138722468Y-78226190D01*
X138722468Y-78226190D02*
X138436754Y-78226190D01*
X138436754Y-78226190D02*
X138341516Y-78178571D01*
X138341516Y-78178571D02*
X138293897Y-78130952D01*
X138293897Y-78130952D02*
X138246278Y-78035714D01*
X138246278Y-78035714D02*
X138246278Y-77845238D01*
X138246278Y-77845238D02*
X138293897Y-77750000D01*
X138865326Y-77369047D02*
X138912945Y-77273809D01*
X138912945Y-77273809D02*
X138912945Y-77083333D01*
X138912945Y-77083333D02*
X138865326Y-76988095D01*
X138865326Y-76988095D02*
X138770087Y-76940476D01*
X138770087Y-76940476D02*
X138722468Y-76940476D01*
X138722468Y-76940476D02*
X138627230Y-76988095D01*
X138627230Y-76988095D02*
X138579611Y-77083333D01*
X138579611Y-77083333D02*
X138579611Y-77226190D01*
X138579611Y-77226190D02*
X138531992Y-77321428D01*
X138531992Y-77321428D02*
X138436754Y-77369047D01*
X138436754Y-77369047D02*
X138389135Y-77369047D01*
X138389135Y-77369047D02*
X138293897Y-77321428D01*
X138293897Y-77321428D02*
X138246278Y-77226190D01*
X138246278Y-77226190D02*
X138246278Y-77083333D01*
X138246278Y-77083333D02*
X138293897Y-76988095D01*
X140475270Y-87488095D02*
X140522889Y-87345238D01*
X140522889Y-87345238D02*
X140522889Y-87107143D01*
X140522889Y-87107143D02*
X140475270Y-87011905D01*
X140475270Y-87011905D02*
X140427650Y-86964286D01*
X140427650Y-86964286D02*
X140332412Y-86916667D01*
X140332412Y-86916667D02*
X140237174Y-86916667D01*
X140237174Y-86916667D02*
X140141936Y-86964286D01*
X140141936Y-86964286D02*
X140094317Y-87011905D01*
X140094317Y-87011905D02*
X140046698Y-87107143D01*
X140046698Y-87107143D02*
X139999079Y-87297619D01*
X139999079Y-87297619D02*
X139951460Y-87392857D01*
X139951460Y-87392857D02*
X139903841Y-87440476D01*
X139903841Y-87440476D02*
X139808603Y-87488095D01*
X139808603Y-87488095D02*
X139713365Y-87488095D01*
X139713365Y-87488095D02*
X139618127Y-87440476D01*
X139618127Y-87440476D02*
X139570508Y-87392857D01*
X139570508Y-87392857D02*
X139522889Y-87297619D01*
X139522889Y-87297619D02*
X139522889Y-87059524D01*
X139522889Y-87059524D02*
X139570508Y-86916667D01*
X140475270Y-86107143D02*
X140522889Y-86202381D01*
X140522889Y-86202381D02*
X140522889Y-86392857D01*
X140522889Y-86392857D02*
X140475270Y-86488095D01*
X140475270Y-86488095D02*
X140380031Y-86535714D01*
X140380031Y-86535714D02*
X139999079Y-86535714D01*
X139999079Y-86535714D02*
X139903841Y-86488095D01*
X139903841Y-86488095D02*
X139856222Y-86392857D01*
X139856222Y-86392857D02*
X139856222Y-86202381D01*
X139856222Y-86202381D02*
X139903841Y-86107143D01*
X139903841Y-86107143D02*
X139999079Y-86059524D01*
X139999079Y-86059524D02*
X140094317Y-86059524D01*
X140094317Y-86059524D02*
X140189555Y-86535714D01*
X139856222Y-85630952D02*
X140856222Y-85630952D01*
X139903841Y-85630952D02*
X139856222Y-85535714D01*
X139856222Y-85535714D02*
X139856222Y-85345238D01*
X139856222Y-85345238D02*
X139903841Y-85250000D01*
X139903841Y-85250000D02*
X139951460Y-85202381D01*
X139951460Y-85202381D02*
X140046698Y-85154762D01*
X140046698Y-85154762D02*
X140332412Y-85154762D01*
X140332412Y-85154762D02*
X140427650Y-85202381D01*
X140427650Y-85202381D02*
X140475270Y-85250000D01*
X140475270Y-85250000D02*
X140522889Y-85345238D01*
X140522889Y-85345238D02*
X140522889Y-85535714D01*
X140522889Y-85535714D02*
X140475270Y-85630952D01*
X139856222Y-84869047D02*
X139856222Y-84488095D01*
X139522889Y-84726190D02*
X140380031Y-84726190D01*
X140380031Y-84726190D02*
X140475270Y-84678571D01*
X140475270Y-84678571D02*
X140522889Y-84583333D01*
X140522889Y-84583333D02*
X140522889Y-84488095D01*
X139618127Y-83440475D02*
X139570508Y-83392856D01*
X139570508Y-83392856D02*
X139522889Y-83297618D01*
X139522889Y-83297618D02*
X139522889Y-83059523D01*
X139522889Y-83059523D02*
X139570508Y-82964285D01*
X139570508Y-82964285D02*
X139618127Y-82916666D01*
X139618127Y-82916666D02*
X139713365Y-82869047D01*
X139713365Y-82869047D02*
X139808603Y-82869047D01*
X139808603Y-82869047D02*
X139951460Y-82916666D01*
X139951460Y-82916666D02*
X140522889Y-83488094D01*
X140522889Y-83488094D02*
X140522889Y-82869047D01*
X139522889Y-82249999D02*
X139522889Y-82154761D01*
X139522889Y-82154761D02*
X139570508Y-82059523D01*
X139570508Y-82059523D02*
X139618127Y-82011904D01*
X139618127Y-82011904D02*
X139713365Y-81964285D01*
X139713365Y-81964285D02*
X139903841Y-81916666D01*
X139903841Y-81916666D02*
X140141936Y-81916666D01*
X140141936Y-81916666D02*
X140332412Y-81964285D01*
X140332412Y-81964285D02*
X140427650Y-82011904D01*
X140427650Y-82011904D02*
X140475270Y-82059523D01*
X140475270Y-82059523D02*
X140522889Y-82154761D01*
X140522889Y-82154761D02*
X140522889Y-82249999D01*
X140522889Y-82249999D02*
X140475270Y-82345237D01*
X140475270Y-82345237D02*
X140427650Y-82392856D01*
X140427650Y-82392856D02*
X140332412Y-82440475D01*
X140332412Y-82440475D02*
X140141936Y-82488094D01*
X140141936Y-82488094D02*
X139903841Y-82488094D01*
X139903841Y-82488094D02*
X139713365Y-82440475D01*
X139713365Y-82440475D02*
X139618127Y-82392856D01*
X139618127Y-82392856D02*
X139570508Y-82345237D01*
X139570508Y-82345237D02*
X139522889Y-82249999D01*
X139618127Y-81535713D02*
X139570508Y-81488094D01*
X139570508Y-81488094D02*
X139522889Y-81392856D01*
X139522889Y-81392856D02*
X139522889Y-81154761D01*
X139522889Y-81154761D02*
X139570508Y-81059523D01*
X139570508Y-81059523D02*
X139618127Y-81011904D01*
X139618127Y-81011904D02*
X139713365Y-80964285D01*
X139713365Y-80964285D02*
X139808603Y-80964285D01*
X139808603Y-80964285D02*
X139951460Y-81011904D01*
X139951460Y-81011904D02*
X140522889Y-81583332D01*
X140522889Y-81583332D02*
X140522889Y-80964285D01*
X139522889Y-80107142D02*
X139522889Y-80297618D01*
X139522889Y-80297618D02*
X139570508Y-80392856D01*
X139570508Y-80392856D02*
X139618127Y-80440475D01*
X139618127Y-80440475D02*
X139760984Y-80535713D01*
X139760984Y-80535713D02*
X139951460Y-80583332D01*
X139951460Y-80583332D02*
X140332412Y-80583332D01*
X140332412Y-80583332D02*
X140427650Y-80535713D01*
X140427650Y-80535713D02*
X140475270Y-80488094D01*
X140475270Y-80488094D02*
X140522889Y-80392856D01*
X140522889Y-80392856D02*
X140522889Y-80202380D01*
X140522889Y-80202380D02*
X140475270Y-80107142D01*
X140475270Y-80107142D02*
X140427650Y-80059523D01*
X140427650Y-80059523D02*
X140332412Y-80011904D01*
X140332412Y-80011904D02*
X140094317Y-80011904D01*
X140094317Y-80011904D02*
X139999079Y-80059523D01*
X139999079Y-80059523D02*
X139951460Y-80107142D01*
X139951460Y-80107142D02*
X139903841Y-80202380D01*
X139903841Y-80202380D02*
X139903841Y-80392856D01*
X139903841Y-80392856D02*
X139951460Y-80488094D01*
X139951460Y-80488094D02*
X139999079Y-80535713D01*
X139999079Y-80535713D02*
X140094317Y-80583332D01*
%LPC*%
D11*
%TO.C,J1*%
X90120000Y-71500000D03*
X90120000Y-72000000D03*
X90120000Y-72500000D03*
X90120000Y-73000000D03*
X90120000Y-73500000D03*
X90120000Y-74000000D03*
X90120000Y-74500000D03*
X90120000Y-75000000D03*
X90120000Y-75500000D03*
X90120000Y-76000000D03*
X90120000Y-76500000D03*
X90120000Y-77000000D03*
X90120000Y-77500000D03*
X90120000Y-78000000D03*
X90120000Y-78500000D03*
X90120000Y-79000000D03*
X90120000Y-79500000D03*
X90120000Y-80000000D03*
X90120000Y-80500000D03*
X90120000Y-81000000D03*
X90120000Y-81500000D03*
X90120000Y-82000000D03*
X90120000Y-82500000D03*
X90120000Y-83000000D03*
X90120000Y-83500000D03*
X90120000Y-84000000D03*
X90120000Y-84500000D03*
X90120000Y-85000000D03*
X90120000Y-85500000D03*
X90120000Y-86000000D03*
X90120000Y-86500000D03*
X90120000Y-87000000D03*
X90120000Y-87500000D03*
X90120000Y-88000000D03*
X90120000Y-88500000D03*
X90120000Y-89000000D03*
X90120000Y-89500000D03*
X90120000Y-90000000D03*
X90120000Y-90500000D03*
X90120000Y-91000000D03*
X90120000Y-91500000D03*
X90120000Y-92000000D03*
X90120000Y-92500000D03*
X90120000Y-93000000D03*
X90120000Y-93500000D03*
X90120000Y-94000000D03*
X90120000Y-94500000D03*
X90120000Y-95000000D03*
X90120000Y-95500000D03*
X90120000Y-96000000D03*
%TD*%
%TO.C,J2*%
X191272500Y-71500000D03*
X191272500Y-72000000D03*
X191272500Y-72500000D03*
X191272500Y-73000000D03*
X191272500Y-73500000D03*
X191272500Y-74000000D03*
X191272500Y-74500000D03*
X191272500Y-75000000D03*
X191272500Y-75500000D03*
X191272500Y-76000000D03*
X191272500Y-76500000D03*
X191272500Y-77000000D03*
X191272500Y-77500000D03*
X191272500Y-78000000D03*
X191272500Y-78500000D03*
X191272500Y-79000000D03*
X191272500Y-79500000D03*
X191272500Y-80000000D03*
X191272500Y-80500000D03*
X191272500Y-81000000D03*
X191272500Y-81500000D03*
X191272500Y-82000000D03*
X191272500Y-82500000D03*
X191272500Y-83000000D03*
X191272500Y-83500000D03*
X191272500Y-84000000D03*
X191272500Y-84500000D03*
X191272500Y-85000000D03*
X191272500Y-85500000D03*
X191272500Y-86000000D03*
X191272500Y-86500000D03*
X191272500Y-87000000D03*
X191272500Y-87500000D03*
X191272500Y-88000000D03*
X191272500Y-88500000D03*
X191272500Y-89000000D03*
X191272500Y-89500000D03*
X191272500Y-90000000D03*
X191272500Y-90500000D03*
X191272500Y-91000000D03*
X191272500Y-91500000D03*
X191272500Y-92000000D03*
X191272500Y-92500000D03*
X191272500Y-93000000D03*
X191272500Y-93500000D03*
X191272500Y-94000000D03*
X191272500Y-94500000D03*
X191272500Y-95000000D03*
X191272500Y-95500000D03*
X191272500Y-96000000D03*
%TD*%
%LPD*%
M02*
